<svg width="270" height="270" viewBox="0 0 270 270" fill="none" xmlns="http://www.w3.org/2000/svg">
<path d="M121.126 147.202L136.27 174.361L161.162 180.462L136.14 148.458C133.194 144.69 128.677 142.489 123.895 142.489C121.476 142.489 119.948 145.089 121.126 147.202Z" fill="#F4C892"/>
<path d="M189.454 249.805L201.969 212.259L192.311 208.138C189.505 206.941 187.702 204.183 187.694 201.132C187.681 196.11 186.96 188.083 183.202 181.036C177.194 169.772 179.184 159.259 185.448 151.5C186.591 150.083 187.593 148.884 188.465 147.87C190.283 145.757 188.779 142.489 185.992 142.489H177.584C177.326 142.489 177.076 142.576 176.877 142.737C175.116 144.168 166.577 151.728 165.68 164.516C164.678 178.783 147.726 174.14 135.142 166.508C127.02 161.583 116.275 155.668 107.947 151.185C100.482 147.167 89.6219 143.483 79.701 142.25C76.6124 141.866 75.1522 145.932 77.8 147.568C92.3657 156.568 119.491 174.508 133.348 191.383C153.081 215.413 158.421 232.767 187.457 248.788C188.143 249.166 188.804 249.497 189.454 249.805Z" fill="#FFD9A0"/>
<path d="M150.356 173.057C150.927 175.655 151.906 178.324 153.353 181.036C155.245 184.584 160.651 193.542 165.177 200.957C169.716 208.391 175.377 215.076 181.965 220.773C181.965 220.773 185.115 223.757 196.118 229.815L201.97 212.26L193.588 208.683C190.068 207.181 187.773 203.757 187.679 199.931C187.554 194.89 186.674 187.546 183.202 181.037C177.195 169.773 179.185 159.26 185.449 151.5C186.592 150.084 187.593 148.885 188.466 147.87C190.284 145.757 188.779 142.489 185.993 142.489H178.368C177.578 142.489 176.813 142.772 176.222 143.296C173.594 145.62 166.494 152.918 165.68 164.517C165.061 173.327 158.357 174.921 150.356 173.057Z" fill="#F4C892"/>
<path d="M221.929 142.489H48.0705C46.1515 142.489 44.2815 141.879 42.7306 140.749L30.6444 131.94C29.5054 131.11 30.0928 129.307 31.5019 129.307H238.497C239.907 129.307 240.494 131.109 239.355 131.94L227.268 140.749C225.718 141.879 223.848 142.489 221.929 142.489Z" fill="#CDDBE7"/>
<path d="M226.87 211.691L206.024 203.392C204.169 202.654 202.066 203.555 201.322 205.408L182.258 252.857C181.51 254.718 182.417 256.832 184.28 257.574L205.126 265.873C206.982 266.612 209.085 265.71 209.829 263.857L228.893 216.409C229.64 214.547 228.734 212.433 226.87 211.691Z" fill="#4A4256"/>
<path d="M219.328 240.215L228.893 216.409C229.64 214.548 228.734 212.433 226.871 211.691L206.025 203.392C204.17 202.654 202.067 203.555 201.322 205.408L191.749 229.235L219.328 240.215Z" fill="#352F3F"/>
<path d="M160.514 129.307C155.33 126.627 138.207 117.424 135.001 117.432C131.896 117.439 111.068 128.478 109.508 129.307H160.514Z" fill="#D6E5E2"/>
<path d="M157.301 33.2758C156.932 20.9028 160.32 10.4777 162.012 6.09236C162.426 5.02133 161.637 3.87067 160.489 3.87067H109.511C108.363 3.87067 107.574 5.02133 107.987 6.09236C109.679 10.4777 113.068 20.9028 112.698 33.2758C112.209 49.6936 99.4937 69.5422 109.895 82.7749C116.224 90.8279 124.148 94.1612 129.381 95.5371C133.062 96.5048 136.938 96.5048 140.619 95.5371C145.852 94.1612 153.776 90.8274 160.105 82.7749C170.506 69.5422 157.791 49.6936 157.301 33.2758Z" fill="#E5F9F6"/>
<path d="M157.301 33.2758C156.932 20.9028 160.32 10.4777 162.012 6.09236C162.426 5.02133 161.637 3.87067 160.489 3.87067H133.753C133.753 3.87067 127.627 16.8581 128.117 33.2758C128.607 49.6936 141.322 69.5422 130.921 82.7743C127.646 86.9403 123.946 89.8407 120.411 91.8631C123.706 93.7467 126.856 94.8732 129.38 95.5371C133.062 96.5048 136.937 96.5048 140.618 95.5371C145.851 94.1612 153.775 90.8274 160.104 82.7749C170.506 69.5422 157.791 49.6936 157.301 33.2758Z" fill="#D6E5E2"/>
<path d="M160.105 82.7743C160.105 82.7738 160.105 82.7738 160.106 82.7733C170.505 69.5407 157.791 49.6931 157.301 33.2753C157.15 28.2223 157.626 23.4952 158.357 19.3708H111.642C112.373 23.4952 112.849 28.2223 112.698 33.2753C112.208 49.6925 99.4948 69.5407 109.893 82.7733C109.893 82.7738 109.894 82.7738 109.895 82.7743C111.873 85.2908 114.006 87.3464 116.165 89.0254C116.597 89.3614 117.029 89.682 117.462 89.9884C120.923 92.4389 124.381 93.9693 127.301 94.9232C128.031 95.1621 128.727 95.3646 129.381 95.5365C132.102 96.2516 134.928 96.4346 137.704 96.0929C137.81 96.0797 137.917 96.0639 138.024 96.0491C138.809 95.941 139.589 95.7886 140.361 95.5956C140.447 95.574 140.534 95.5592 140.62 95.5365C142.582 95.0208 144.923 94.2293 147.416 93.0169C149.494 92.0065 151.677 90.704 153.836 89.0254C155.994 87.3464 158.127 85.2908 160.105 82.7743Z" fill="#FBCF4C"/>
<path d="M148.777 92.3177C149.146 92.1189 149.518 91.9116 149.89 91.6933C149.952 91.6569 150.014 91.6189 150.076 91.582C150.419 91.3795 150.762 91.1681 151.106 90.9482C151.17 90.907 151.235 90.8675 151.299 90.8258C151.674 90.5832 152.049 90.3285 152.425 90.0649C152.508 90.0063 152.591 89.9467 152.674 89.8877C153.446 89.3355 154.218 88.7365 154.983 88.0884C155.065 88.0193 155.147 87.9502 155.229 87.8796C155.603 87.5574 155.975 87.2251 156.345 86.8781C156.406 86.8212 156.466 86.7611 156.527 86.7031C156.866 86.3814 157.201 86.0491 157.535 85.7064C157.596 85.6431 157.659 85.5819 157.72 85.5181C158.082 85.1411 158.44 84.7487 158.794 84.3453C158.872 84.2567 158.95 84.166 159.027 84.0758C159.389 83.6561 159.748 83.2268 160.101 82.778C160.102 82.7765 160.103 82.7754 160.104 82.7738C160.105 82.7733 160.105 82.7733 160.106 82.7728C165.955 75.3299 164.491 65.7934 162.004 55.9521C161.998 55.9289 161.992 55.9057 161.987 55.883C161.604 54.3738 161.199 52.8577 160.792 51.341C160.615 50.6824 160.438 50.0237 160.263 49.3651C160.059 48.5978 159.858 47.8316 159.661 47.0664C159.576 46.7352 159.492 46.4046 159.408 46.0745C159.33 45.7639 159.254 45.4538 159.178 45.1437C158.988 44.3617 158.805 43.5822 158.633 42.8055C158.547 42.4126 158.464 42.0213 158.383 41.63C158.239 40.9287 158.104 40.2305 157.983 39.5354C157.928 39.218 157.876 38.9016 157.826 38.5851C157.734 38.0003 157.653 37.4187 157.582 36.8402C157.539 36.4869 157.5 36.1351 157.466 35.7844C157.409 35.2017 157.363 34.6216 157.333 34.0463C157.32 33.7879 157.309 33.5306 157.302 33.2743C157.285 32.7069 157.278 32.1447 157.276 31.5857C157.276 31.475 157.275 31.3648 157.275 31.2546C157.276 30.7156 157.284 30.1809 157.298 29.6509C157.301 29.5549 157.305 29.4605 157.308 29.3651C157.324 28.8536 157.345 28.3457 157.372 27.8437C157.375 27.7984 157.376 27.7519 157.379 27.7066C157.409 27.175 157.447 26.6503 157.488 26.1293C157.496 26.0286 157.505 25.9279 157.513 25.8277C157.556 25.313 157.604 24.803 157.658 24.3C157.664 24.242 157.671 24.185 157.678 24.127C157.73 23.6418 157.788 23.163 157.85 22.69C157.857 22.6325 157.864 22.574 157.872 22.5165C157.938 22.0208 158.008 21.533 158.082 21.051C158.094 20.9724 158.106 20.8939 158.118 20.8158C158.195 20.3275 158.275 19.845 158.358 19.3725C158.358 19.3719 158.358 19.3714 158.359 19.3704H129.176C128.445 23.4952 127.968 28.2213 128.119 33.2748C128.609 49.6926 141.324 69.5412 130.923 82.7733C127.649 86.9393 123.948 89.8397 120.413 91.8621C120.415 91.8626 120.416 91.8636 120.418 91.8642C122.886 93.2748 125.273 94.2609 127.377 94.9454C127.41 94.9565 127.442 94.9649 127.475 94.976C127.789 95.0773 128.099 95.1738 128.4 95.2618C128.737 95.3604 129.065 95.4517 129.383 95.5355C129.794 95.6436 130.208 95.7354 130.623 95.8192C130.753 95.8456 130.883 95.8683 131.013 95.892C131.31 95.9468 131.608 95.9943 131.907 96.0365C132.046 96.056 132.184 96.0771 132.323 96.094C132.723 96.1425 133.123 96.1831 133.524 96.21C133.649 96.2184 133.774 96.22 133.899 96.2258C134.187 96.2401 134.475 96.2506 134.762 96.2538C134.949 96.2559 135.136 96.2538 135.323 96.2511C135.556 96.248 135.788 96.2395 136.021 96.229C136.213 96.22 136.404 96.2132 136.596 96.1989C136.958 96.1725 137.32 96.1383 137.681 96.0945C137.69 96.0935 137.698 96.0929 137.706 96.0919C137.813 96.0787 137.919 96.0629 138.026 96.0481C138.811 95.94 139.59 95.7876 140.363 95.5946C140.449 95.573 140.536 95.5582 140.622 95.5355C140.914 95.4585 141.219 95.3731 141.528 95.2835C141.618 95.2571 141.711 95.2291 141.802 95.2017C142.036 95.1316 142.274 95.0577 142.517 94.9802C142.614 94.9491 142.71 94.9185 142.809 94.8858C143.468 94.668 144.155 94.4202 144.863 94.1396C144.968 94.0985 145.073 94.0547 145.178 94.012C145.441 93.905 145.707 93.7927 145.976 93.6761C146.086 93.6287 146.195 93.5817 146.306 93.5322C147.035 93.2073 147.78 92.8461 148.537 92.4458C148.614 92.4042 148.695 92.3614 148.777 92.3177Z" fill="#F4A23F"/>
<path d="M221.929 138.618H48.0705C46.9636 138.618 45.9047 138.273 45.0103 137.622L38.9131 133.177H199.454C201.592 133.177 203.324 131.445 203.324 129.307C203.324 127.169 201.592 125.437 199.454 125.437H161.46C160.988 125.191 160.464 124.916 159.882 124.612C149.031 118.931 142.761 115.871 138.959 114.491C138.96 114.491 138.96 114.492 138.961 114.492V99.816C139.849 99.6794 140.732 99.509 141.604 99.2802C147.614 97.7003 156.23 93.9693 163.149 85.1659C171.145 74.9924 167.756 62.3609 164.479 50.145C162.858 44.1017 161.327 38.3942 161.17 33.1604C160.816 21.321 164.167 11.2609 165.624 7.48563C166.277 5.79128 166.054 3.88652 165.028 2.38992C164 0.893319 162.304 0 160.489 0H109.511C107.696 0 105.999 0.893319 104.972 2.38992C103.946 3.88652 103.723 5.79128 104.376 7.4851C105.778 11.1174 109.019 20.8037 108.849 32.2744C108.818 34.4118 110.525 36.1699 112.662 36.201C112.682 36.2016 112.701 36.2016 112.72 36.2016C114.831 36.2016 116.558 34.5061 116.589 32.3883C116.636 29.1816 116.454 26.114 116.124 23.2416H153.878C153.513 26.4146 153.325 29.8186 153.431 33.3913C153.615 39.5275 155.336 45.9447 157.002 52.151C159.914 63.0048 162.664 73.2558 157.062 80.3829C151.47 87.4978 144.498 90.5152 139.635 91.794C136.603 92.5919 133.397 92.5919 130.365 91.794C125.501 90.5157 118.529 87.4978 112.937 80.3829C107.335 73.2563 110.085 63.0048 112.997 52.1516L113.287 51.0673C113.84 49.0023 112.614 46.8808 110.549 46.3281C108.485 45.777 106.362 47.0026 105.81 49.0666L105.52 50.1461C102.243 62.362 98.8541 74.9934 106.851 85.1664C113.77 93.9698 122.386 97.7008 128.396 99.2807C129.268 99.5096 130.151 99.6799 131.039 99.8165C131.039 99.8165 131.039 99.8165 131.038 99.8165V114.566C127.603 115.848 121.129 118.771 108.543 125.437H31.5024C29.1895 125.437 27.1545 126.915 26.4378 129.114C25.7217 131.313 26.4963 133.706 28.3647 135.068L40.4509 143.878C42.6794 145.501 45.314 146.359 48.0705 146.359H72.6668C73.0027 148.176 74.0853 149.823 75.766 150.861C90.3939 159.898 116.939 177.499 130.357 193.839C135.829 200.502 140.132 206.581 144.293 212.46C153.876 225.999 162.225 237.784 179.742 248.739L178.667 251.414C177.92 253.275 177.943 255.316 178.733 257.16C179.523 259.004 180.986 260.428 182.849 261.17L203.695 269.47C204.599 269.83 205.533 270 206.453 270C209.425 269.999 212.247 268.22 213.42 265.301L232.483 217.853C233.231 215.991 233.207 213.95 232.417 212.106C231.627 210.262 230.165 208.838 228.302 208.096L207.456 199.796C203.627 198.273 199.265 200.143 197.731 203.966L196.949 205.91L193.83 204.579C192.457 203.994 191.568 202.637 191.564 201.123C191.549 195.333 190.678 186.832 186.617 179.216C181.853 170.284 182.507 161.304 188.459 153.931C189.509 152.632 190.497 151.442 191.399 150.394C192.408 149.222 192.984 147.814 193.108 146.359H221.929C224.685 146.359 227.32 145.501 229.549 143.877L241.634 135.068C243.503 133.706 244.278 131.314 243.562 129.114C242.845 126.915 240.81 125.437 238.497 125.437H217.461C215.324 125.437 213.591 127.17 213.591 129.308C213.591 131.445 215.324 133.178 217.461 133.178H231.086L224.99 137.622C224.095 138.273 223.036 138.618 221.929 138.618ZM155.172 15.5012H114.824C114.164 12.508 113.402 9.88451 112.688 7.74086H157.31C156.593 9.89137 155.832 12.5128 155.172 15.5012ZM135.047 121.335C136.372 121.631 139.529 123.004 144.477 125.437H125.626C130.244 123.204 133.724 121.673 135.047 121.335ZM168.353 146.359C165.369 150.538 162.359 156.556 161.819 164.245C161.58 167.654 160.301 168.696 159.359 169.184C158.877 169.434 158.315 169.615 157.685 169.731L139.411 146.358H168.353V146.359ZM133.091 150.842L146.308 167.747C145.006 167.247 143.663 166.664 142.297 166.003C142.278 165.993 142.258 165.984 142.239 165.975C141.985 165.851 141.73 165.725 141.474 165.597C141.392 165.556 141.31 165.513 141.228 165.471C140.9 165.304 140.57 165.132 140.24 164.956C140.04 164.849 139.839 164.742 139.638 164.632C139.495 164.554 139.352 164.474 139.209 164.394C138.985 164.27 138.762 164.144 138.538 164.015C138.419 163.947 138.3 163.879 138.18 163.81C137.845 163.614 137.51 163.417 137.175 163.214C137.167 163.209 137.158 163.204 137.149 163.199C137.127 163.186 137.104 163.172 137.082 163.159C136.665 162.906 136.234 162.647 135.797 162.385C135.656 162.301 135.516 162.217 135.374 162.132C134.925 161.864 134.468 161.593 134.002 161.318C133.91 161.264 133.817 161.209 133.725 161.155C133.533 161.042 133.343 160.93 133.149 160.815L125.123 146.422C128.262 146.748 131.118 148.318 133.091 150.842ZM116.883 146.359C116.979 147.297 117.265 148.223 117.746 149.087L120.179 153.451C116.455 151.39 112.867 149.438 109.781 147.777C108.88 147.292 107.94 146.821 106.979 146.359H116.883V146.359ZM204.822 207.079L225.209 215.195L206.33 262.186L185.943 254.07L204.822 207.079ZM182.437 149.068C174.527 158.867 173.561 171.182 179.786 182.858C183.1 189.071 183.811 196.231 183.824 201.142C183.836 205.754 186.571 209.897 190.792 211.698L194.063 213.093L191.875 218.539L182.675 241.439C167.278 231.535 159.844 221.031 150.611 207.988C146.37 201.998 141.987 195.803 136.338 188.926C123.424 173.199 99.4743 156.68 83.9683 146.862C91.5921 148.371 99.8666 151.23 106.111 154.592C112.892 158.243 122.111 163.296 129.805 167.829C129.939 167.908 130.071 167.986 130.204 168.065C130.557 168.273 130.906 168.481 131.252 168.687C131.424 168.789 131.596 168.892 131.765 168.993C132.228 169.27 132.687 169.546 133.134 169.817C133.299 169.917 133.479 170.025 133.666 170.136C136.856 172.033 141.403 174.402 146.41 175.982C146.52 176.017 146.63 176.051 146.741 176.086C146.909 176.137 147.077 176.188 147.246 176.238C147.5 176.314 147.755 176.386 148.01 176.456C148.063 176.471 148.115 176.487 148.167 176.501C148.176 176.504 148.186 176.506 148.195 176.508C148.53 176.599 148.866 176.684 149.203 176.765C149.296 176.788 149.388 176.808 149.481 176.83C149.716 176.884 149.953 176.937 150.189 176.987C150.312 177.014 150.436 177.039 150.558 177.064C150.755 177.103 150.952 177.14 151.149 177.176C151.287 177.201 151.426 177.227 151.562 177.25C151.712 177.275 151.862 177.296 152.011 177.319C152.392 177.377 152.768 177.427 153.138 177.469C153.195 177.475 153.251 177.482 153.308 177.489C153.548 177.514 153.784 177.534 154.02 177.552C154.073 177.556 154.125 177.561 154.178 177.564C154.424 177.582 154.668 177.595 154.91 177.605C154.944 177.606 154.979 177.607 155.014 177.609C155.273 177.617 155.53 177.623 155.784 177.623C155.786 177.623 155.788 177.623 155.791 177.623C155.841 177.623 155.892 177.623 155.942 177.623C155.945 177.623 155.949 177.622 155.953 177.622C158.607 177.602 160.937 177.084 162.917 176.058C165.677 174.628 169.068 171.512 169.54 164.788C170.238 154.846 176.212 148.513 178.599 146.359H184.668C183.96 147.199 183.213 148.106 182.437 149.068Z" fill="black"/>
</svg>
