<svg width="270" height="270" viewBox="0 0 270 270" fill="none" xmlns="http://www.w3.org/2000/svg">
<path d="M42.1875 42.1875C42.1875 42.1875 92.8125 143.438 135 143.438C177.188 143.438 227.812 42.1875 227.812 42.1875H42.1875Z" fill="url(#paint0_linear)"/>
<path d="M56.3103 67.5C74.3323 97.49 106.58 143.438 135 143.438C163.42 143.438 195.668 97.49 213.69 67.5H56.3103Z" fill="url(#paint1_linear)"/>
<path d="M194.062 261.562C194.062 261.562 143.438 244.688 135 227.812C126.562 244.688 75.9375 261.562 75.9375 261.562H194.062Z" fill="url(#paint2_linear)"/>
<path d="M173.448 67.5C187.427 67.5 198.76 56.1672 198.76 42.1875C198.76 28.2078 187.427 16.875 173.448 16.875C159.468 16.875 148.135 28.2078 148.135 42.1875C148.135 56.1672 159.468 67.5 173.448 67.5Z" fill="url(#paint3_linear)"/>
<path d="M233.196 38.8605C232.629 37.9429 231.836 37.1856 230.894 36.6603C229.952 36.135 228.891 35.8593 227.813 35.8594H204.462C204.402 35.5609 204.329 35.2661 204.26 34.9703C216.185 28.5261 225.703 17.1302 225.703 8.4375C225.703 6.75918 225.036 5.14959 223.85 3.96284C222.663 2.77609 221.053 2.10938 219.375 2.10938C217.697 2.10938 216.087 2.77609 214.9 3.96284C213.714 5.14959 213.047 6.75918 213.047 8.4375C213.047 10.916 207.582 18.5699 198.949 23.4573C197.889 22.0177 196.71 20.669 195.425 19.4252C191.346 15.4883 186.285 12.7193 180.77 11.4079C175.254 10.0964 169.488 10.2906 164.074 11.9701C158.659 13.6497 153.795 16.7529 149.991 20.9553C146.186 25.1578 143.58 30.3052 142.445 35.8594H42.1875C41.1089 35.8594 40.0482 36.1352 39.1061 36.6604C38.164 37.1857 37.3718 37.943 36.8048 38.8606C36.2377 39.7781 35.9145 40.8253 35.866 41.9029C35.8175 42.9804 36.0452 44.0524 36.5275 45.0172C45.7025 62.8573 56.0875 80.0486 67.6097 96.4707C90.016 128.102 110.519 145.777 128.672 149.152V226.125C121.816 236.527 91.8865 249.567 73.9336 255.557C72.5064 256.031 71.2947 256.998 70.5157 258.285C69.7367 259.571 69.4413 261.093 69.6825 262.577C69.9237 264.062 70.6857 265.412 71.8319 266.385C72.9781 267.359 74.4336 267.893 75.9375 267.891H194.063C195.565 267.891 197.019 267.357 198.164 266.383C199.309 265.41 200.07 264.061 200.311 262.578C200.552 261.094 200.258 259.573 199.48 258.288C198.702 257.002 197.492 256.035 196.066 255.559C178.114 249.569 148.184 236.529 141.328 226.125V149.155C159.481 145.775 179.982 128.102 202.39 96.4733C213.913 80.0512 224.298 62.8599 233.473 45.0199C233.955 44.0548 234.183 42.9822 234.135 41.9042C234.087 40.8261 233.763 39.7784 233.196 38.8605V38.8605ZM210.085 61.1719H198.756C201.576 57.4311 203.524 53.1068 204.456 48.5156H217.293C215.375 52.0109 212.941 56.3346 210.085 61.1719V61.1719ZM159.792 29.0039C161.519 27.2051 163.586 25.7668 165.873 24.7722C168.16 23.7777 170.622 23.2467 173.115 23.21C183.437 22.8055 192.644 31.8553 192.433 42.1875C192.434 45.2956 191.671 48.3563 190.212 51.1009C188.754 53.8454 186.643 56.1899 184.067 57.9283C181.491 59.6667 178.527 60.746 175.436 61.0713C172.345 61.3965 169.221 60.9579 166.339 59.7939C163.457 58.6299 160.905 56.7762 158.907 54.3954C156.909 52.0146 155.526 49.1797 154.879 46.1395C154.233 43.0994 154.343 39.947 155.199 36.9593C156.056 33.9715 157.633 31.2398 159.792 29.0039V29.0039ZM142.436 48.5156C143.36 53.1084 145.307 57.4341 148.131 61.1719H59.9147C57.0597 56.3346 54.6249 52.0109 52.7075 48.5156H142.436ZM161.8 255.234H108.201C120.498 249.328 129.369 243.667 135 238.11C140.631 243.667 149.502 249.328 161.799 255.234H161.8ZM135 137.109C120.129 137.109 99.8911 120.12 78.0195 89.2709C74.3281 84.0612 70.8524 78.8353 67.6672 73.8281H202.333C199.148 78.8379 195.674 84.0612 191.981 89.2709C170.109 120.12 149.871 137.109 135 137.109V137.109Z" fill="black"/>
<path d="M153.984 97.0312C157.479 97.0312 160.312 94.1981 160.312 90.7031C160.312 87.2082 157.479 84.375 153.984 84.375C150.489 84.375 147.656 87.2082 147.656 90.7031C147.656 94.1981 150.489 97.0312 153.984 97.0312Z" fill="black"/>
<path d="M116.016 105.469C119.511 105.469 122.344 102.636 122.344 99.1406C122.344 95.6457 119.511 92.8125 116.016 92.8125C112.521 92.8125 109.688 95.6457 109.688 99.1406C109.688 102.636 112.521 105.469 116.016 105.469Z" fill="black"/>
<path d="M137.109 122.344C140.604 122.344 143.438 119.511 143.438 116.016C143.438 112.521 140.604 109.688 137.109 109.688C133.614 109.688 130.781 112.521 130.781 116.016C130.781 119.511 133.614 122.344 137.109 122.344Z" fill="black"/>
<defs>
<linearGradient id="paint0_linear" x1="82.2878" y1="107.512" x2="187.712" y2="2.08723" gradientUnits="userSpaceOnUse">
<stop offset="0.011" stop-color="#DCDCE3"/>
<stop offset="1" stop-color="#EDEDF1"/>
</linearGradient>
<linearGradient id="paint1_linear" x1="86.0499" y1="123.468" x2="140.533" y2="68.985" gradientUnits="userSpaceOnUse">
<stop offset="0.011" stop-color="#F4A23F"/>
<stop offset="1" stop-color="#FBCF4C"/>
</linearGradient>
<linearGradient id="paint2_linear" x1="23700.9" y1="18857.8" x2="25697.9" y2="11868.4" gradientUnits="userSpaceOnUse">
<stop offset="0.011" stop-color="#DCDCE3"/>
<stop offset="1" stop-color="#EDEDF1"/>
</linearGradient>
<linearGradient id="paint3_linear" x1="155.462" y1="60.1279" x2="202.198" y2="13.4452" gradientUnits="userSpaceOnUse">
<stop stop-color="#D46669"/>
<stop offset="1" stop-color="#DD888A"/>
</linearGradient>
</defs>
</svg>
