<svg width="254" height="175" viewBox="0 0 254 175" fill="none" xmlns="http://www.w3.org/2000/svg">
<g clip-path="url(#clip0)">
<path d="M17.5032 104.464C13.6779 104.464 10.6723 101.458 10.6723 97.6328V70.8556C10.6723 65.1177 15.5905 60.4726 21.3285 60.7459C24.0609 60.7459 26.7932 62.1121 28.7059 64.0247C28.4326 62.9318 28.1594 61.8388 28.1594 60.4726C28.4326 53.6417 34.1706 48.177 41.0015 48.177C46.193 48.177 50.838 51.7291 52.4774 56.6473C57.6689 52.0023 65.5928 52.5488 70.2378 58.0135C70.7843 58.8332 71.604 59.6529 71.8772 60.4726C73.7899 59.1065 75.7025 58.56 78.1616 58.56C83.8996 58.56 88.5446 63.205 88.5446 68.943C88.5446 71.4021 87.7249 73.588 86.0855 75.5006L85.2658 76.5936H65.866C65.866 76.8668 65.866 76.8668 65.866 77.1401C65.866 78.233 65.866 79.0527 65.866 80.1457C65.866 80.6921 65.866 81.2386 65.866 81.5118C65.866 88.3427 60.128 93.8075 53.0239 93.8075C47.2859 93.8075 42.0944 89.4357 41.0015 83.6977C38.5424 88.8892 32.2579 91.0751 27.0665 88.616C25.9735 88.0695 25.1538 87.523 24.3341 86.7033V97.906C24.3341 101.731 21.3285 104.737 17.5032 104.464Z" fill="white"/>
<path d="M65.866 76.5938H55.2098C55.2098 76.867 55.2098 76.867 55.2098 77.1402C55.2098 78.2332 55.2098 79.0529 55.2098 80.1458C55.2098 80.6923 55.2098 81.2388 55.2098 81.512C55.2098 86.157 52.2042 90.5288 48.1057 92.4415C49.7451 93.2612 51.6577 93.5344 53.2971 93.5344C60.128 93.5344 65.866 88.0697 65.866 81.2388C65.866 80.9655 65.866 80.4191 65.866 79.8726C65.866 78.7796 65.866 77.9599 65.866 76.867C65.866 76.867 65.866 76.867 65.866 76.5938Z" fill="#F7EEBA"/>
<path d="M78.1616 58.8333C76.249 58.8333 74.6096 59.3797 72.9702 60.1994C77.8884 62.9318 79.5278 68.943 76.7955 73.8612C76.5222 74.4077 75.9758 74.9542 75.7025 75.5007L74.8828 76.5936H85.539L86.3587 75.5007C87.9982 73.588 88.8179 71.4021 88.8179 68.943C88.5446 63.4783 83.8996 58.8333 78.1616 58.8333Z" fill="#F7EEBA"/>
<path d="M29.5256 172.226C24.3341 172.772 19.6891 169.22 19.1426 164.029C19.1426 163.209 19.1426 162.663 19.1426 161.843V104.737L20.782 103.917C23.2412 102.824 24.6073 100.365 24.6073 97.9057V87.796L28.1594 89.1621C29.2524 89.4354 30.3453 89.7086 31.7115 89.7086C34.1706 89.7086 36.903 88.8889 38.8156 87.2495L41.2748 85.0636L42.9142 87.796C45.1001 91.6213 49.1986 93.8072 53.5704 93.8072C60.4013 93.8072 66.1393 88.3424 66.1393 81.5115C66.1393 81.2383 66.1393 80.6918 66.1393 80.1453L66.4125 76.5933H84.4461C86.0855 76.5933 87.4517 77.9594 87.4517 79.5989V161.843C87.9982 167.034 84.4461 171.68 79.2546 172.226C78.4349 172.226 77.8884 172.226 77.0687 172.226H29.5256Z" fill="#FBCF4C"/>
<path d="M84.1729 76.5935H69.6913C71.3307 76.5935 72.4237 77.9597 72.4237 79.5991V161.843C72.9702 167.035 69.4181 171.68 64.2266 172.226C63.4069 172.226 62.8604 172.226 62.0407 172.226H76.5222C81.7137 172.773 86.3587 169.221 86.9052 164.029C86.9052 163.209 86.9052 162.663 86.9052 161.843V79.5991C86.9052 77.9597 85.8123 76.5935 84.1729 76.5935Z" fill="#F4A23F"/>
<path d="M87.1785 157.745V142.443H97.015C103.299 142.443 103.846 136.159 103.846 133.427V115.393C103.846 112.661 103.299 106.376 97.015 106.376H87.1785V91.3481H105.212C113.136 91.3481 117.781 97.3593 117.781 107.742V141.077C117.781 151.46 113.136 157.471 105.212 157.471L87.1785 157.745Z" fill="#FBCF4C"/>
<path d="M105.212 91.3484H96.4685C104.392 91.3484 109.037 97.3596 109.037 107.743V141.077C109.037 151.46 104.392 157.472 96.4685 157.472H105.212C113.136 157.472 117.781 151.46 117.781 141.077V107.743C117.781 97.3596 113.136 91.3484 105.212 91.3484Z" fill="#F4A23F"/>
<path d="M105.212 88.6161H89.9108V79.5993C89.9108 78.5063 89.6376 77.4134 89.0911 76.5937C90.7305 74.4078 91.5502 71.9486 91.5502 69.2163C91.5502 61.8389 85.539 56.1009 78.1617 56.1009C76.5222 56.1009 74.6096 56.3742 73.2434 57.1939C68.5984 51.4559 60.6745 49.5433 54.1169 53.0953C49.7451 45.9912 40.1818 43.8053 33.0777 48.4503C29.2524 50.9094 26.7932 54.7348 26.2468 59.1065C19.4158 56.6474 11.7652 59.9262 9.3061 66.7572C8.75963 68.1233 8.48639 69.7628 8.48639 71.1289V97.9061C8.48639 102.551 12.0385 106.65 16.6835 107.196V161.843C16.137 168.401 21.0553 174.412 27.6129 174.959C28.4326 174.959 28.9791 174.959 29.7988 174.959H77.0687C83.6264 175.505 89.6376 170.587 90.1841 164.029C90.1841 163.21 90.1841 162.663 90.1841 161.843V160.477H105.212C114.775 160.477 120.513 153.373 120.513 141.351V107.743C120.513 95.7202 114.775 88.6161 105.212 88.6161ZM84.4461 161.843C84.9926 165.668 82.5334 168.947 78.7081 169.494C78.1617 169.494 77.3419 169.494 76.7955 169.494H29.5256C25.7003 170.04 22.4214 167.581 21.875 163.756C21.875 163.209 21.875 162.39 21.875 161.843V106.376C25.1538 104.737 27.3397 101.458 27.3397 97.9058V91.6213C31.9847 93.2607 36.903 92.1678 40.455 89.1622C44.8268 96.2663 54.1169 98.7255 61.4942 94.3537C65.866 91.6213 68.5984 86.7031 68.8716 81.5116C68.8716 81.2383 68.8716 80.6919 68.8716 80.4186C68.8716 80.1454 68.8716 79.8722 68.8716 79.5989H84.4461C84.4461 79.5989 84.7193 79.5989 84.7193 79.8722V161.843H84.4461ZM84.1729 73.8613H65.866C64.2266 73.8613 63.1337 74.9542 63.1337 76.5937C63.1337 76.8669 63.1337 76.8669 63.1337 77.1401V77.4134C63.1337 78.2331 63.1337 79.0528 63.1337 79.8725C63.1337 80.419 63.1337 80.9654 63.1337 81.5119C63.1337 86.9766 58.4886 91.0752 53.0239 91.0752C48.3789 91.0752 44.5536 87.7964 43.7339 83.1513C43.4606 82.0584 42.6409 80.9654 41.2747 80.9654C40.1818 80.9654 39.0889 81.5119 38.5424 82.6049C36.6297 86.4302 31.9847 88.0696 28.1594 86.1569C27.3397 85.8837 26.7932 85.3372 26.2468 84.7908C25.1538 83.6978 23.5144 83.6978 22.4214 84.7908C21.875 85.3372 21.6017 85.8837 21.6017 86.7034V97.9061C21.6017 100.092 19.6891 102.005 17.5032 102.005C15.3173 102.005 13.4046 100.092 13.4046 97.9061V71.1289C13.4046 66.7572 17.23 63.4783 21.3285 63.7516C23.5144 63.7516 25.427 64.8445 26.7932 66.2107C27.8862 67.3036 29.5256 67.5769 30.6185 66.4839C31.4382 65.6642 31.7115 64.5713 31.4382 63.4783C31.165 62.6586 30.8918 61.5657 30.8918 60.746C30.8918 55.2812 35.2635 50.9094 40.455 50.9094C44.8268 50.9094 48.6521 53.6418 50.0183 57.7404C50.5648 59.1065 51.931 59.9262 53.5704 59.3798C53.8436 59.3798 54.1169 59.1065 54.3901 58.8333C58.4886 55.2812 64.7731 55.8277 68.0519 60.1995C68.5984 60.746 68.8716 61.5657 69.4181 62.1121C69.9646 63.4783 71.604 64.0248 72.9702 63.2051L73.2434 62.9318C74.6096 62.1121 76.249 61.5657 77.8884 61.5657C81.987 61.5657 85.539 64.8445 85.539 68.943C86.0855 70.8557 85.2658 72.4951 84.1729 73.8613ZM89.9108 109.382H97.015C99.7473 109.382 101.114 111.568 101.114 115.666V133.7C101.114 137.799 99.7473 139.985 97.015 139.985H89.9108V109.382ZM115.049 141.35C115.049 146.542 113.682 155.012 105.212 155.012H89.9108V145.176H97.015C103.026 145.176 106.578 140.804 106.578 133.426V115.393C106.578 108.289 103.026 103.644 97.015 103.644H89.9108V94.0804H105.212C113.682 94.0804 115.049 102.551 115.049 107.742V141.35Z" fill="#4A2328"/>
<path d="M33.6241 102.005C31.9847 102.005 30.8918 103.098 30.8918 104.737V149.548C30.8918 151.187 31.9847 152.28 33.6241 152.28C35.2636 152.28 36.3565 151.187 36.3565 149.548V104.737C36.3565 103.098 34.9903 102.005 33.6241 102.005Z" fill="#4A2328"/>
<path d="M46.4662 102.005C44.8268 102.005 43.7339 103.098 43.7339 104.737V149.548C43.7339 151.187 44.8268 152.28 46.4662 152.28C48.1057 152.28 49.1986 151.187 49.1986 149.548V104.737C49.1986 103.098 48.1057 102.005 46.4662 102.005Z" fill="#4A2328"/>
<path d="M59.5816 102.005C57.9422 102.005 56.8492 103.098 56.8492 104.737V149.548C56.8492 151.187 57.9422 152.28 59.5816 152.28C61.221 152.28 62.3139 151.187 62.3139 149.548V104.737C62.3139 103.098 60.9478 102.005 59.5816 102.005Z" fill="#4A2328"/>
<path d="M72.4237 102.005C70.7843 102.005 69.6913 103.098 69.6913 104.737V149.548C69.6913 151.187 70.7843 152.28 72.4237 152.28C74.0631 152.28 75.1561 151.187 75.1561 149.548V104.737C75.1561 103.098 74.0631 102.005 72.4237 102.005Z" fill="#4A2328"/>
</g>
<g clip-path="url(#clip1)">
<path d="M102.745 79.3113C97.5552 79.3113 93.4779 75.2339 93.4779 70.0445V33.7189C93.4779 25.9349 100.15 19.6335 107.934 20.0042C111.641 20.0042 115.347 21.8575 117.942 24.4522C117.571 22.9695 117.201 21.4868 117.201 19.6335C117.571 10.3668 125.355 2.95337 134.622 2.95337C141.665 2.95337 147.966 7.77207 150.19 14.4441C157.233 8.14274 167.982 8.88408 174.284 16.2975C175.025 17.4095 176.137 18.5215 176.508 19.6335C179.103 17.7801 181.697 17.0388 185.033 17.0388C192.817 17.0388 199.119 23.3402 199.119 31.1243C199.119 34.4603 198.007 37.4256 195.783 40.0203L194.671 41.503H168.353C168.353 41.8737 168.353 41.8737 168.353 42.2443C168.353 43.727 168.353 44.839 168.353 46.3217C168.353 47.063 168.353 47.8044 168.353 48.175C168.353 57.4418 160.569 64.8552 150.932 64.8552C143.148 64.8552 136.105 58.9245 134.622 51.1404C131.286 58.1831 122.761 61.1485 115.718 57.8125C114.235 57.0711 113.123 56.3298 112.011 55.2178V70.4152C112.011 75.6046 107.934 79.6819 102.745 79.3113Z" fill="white"/>
<path d="M168.353 41.5029H153.897C153.897 41.8736 153.897 41.8736 153.897 42.2443C153.897 43.7269 153.897 44.839 153.897 46.3216C153.897 47.063 153.897 47.8043 153.897 48.175C153.897 54.4764 149.82 60.4071 144.26 63.0018C146.484 64.1138 149.078 64.4844 151.302 64.4844C160.569 64.4844 168.353 57.071 168.353 47.8043C168.353 47.4336 168.353 46.6923 168.353 45.951C168.353 44.4683 168.353 43.3563 168.353 41.8736C168.353 41.8736 168.353 41.8736 168.353 41.5029Z" fill="#F7EEBA"/>
<path d="M185.033 17.4094C182.439 17.4094 180.215 18.1508 177.991 19.2628C184.663 22.9695 186.887 31.1242 183.18 37.7962C182.809 38.5376 182.068 39.2789 181.697 40.0203L180.585 41.5029H195.041L196.153 40.0203C198.377 37.4256 199.489 34.4602 199.489 31.1242C199.119 23.7108 192.817 17.4094 185.033 17.4094Z" fill="#F7EEBA"/>
<path d="M119.054 171.237C112.011 171.978 105.71 167.159 104.969 160.117C104.969 159.005 104.969 158.263 104.969 157.151V79.6814L107.193 78.5694C110.529 77.0867 112.382 73.7507 112.382 70.4147V56.6999L117.201 58.5532C118.683 58.9239 120.166 59.2946 122.019 59.2946C125.355 59.2946 129.062 58.1826 131.657 55.9586L134.993 52.9932L137.217 56.6999C140.182 61.8893 145.742 64.8546 151.673 64.8546C160.94 64.8546 168.724 57.4412 168.724 48.1745C168.724 47.8038 168.724 47.0625 168.724 46.3211L169.094 41.5024H193.559C195.783 41.5024 197.636 43.3558 197.636 45.5798V157.151C198.377 164.194 193.559 170.495 186.516 171.237C185.404 171.237 184.663 171.237 183.551 171.237H119.054Z" fill="#FBCF4C"/>
<path d="M193.188 41.5029H173.542C175.767 41.5029 177.249 43.3563 177.249 45.5803V157.152C177.991 164.195 173.172 170.496 166.129 171.237C165.017 171.237 164.276 171.237 163.164 171.237H182.809C189.852 171.979 196.153 167.16 196.895 160.117C196.895 159.005 196.895 158.264 196.895 157.152V45.5803C196.895 43.3563 195.412 41.5029 193.188 41.5029Z" fill="#F4A23F"/>
<path d="M197.265 151.591V130.834H210.609C219.135 130.834 219.876 122.308 219.876 118.602V94.1375C219.876 90.4308 219.135 81.9054 210.609 81.9054H197.265V61.5186H221.73C232.479 61.5186 238.78 69.6733 238.78 83.7587V128.98C238.78 143.066 232.479 151.221 221.73 151.221L197.265 151.591Z" fill="#FBCF4C"/>
<path d="M221.73 61.519H209.868C220.618 61.519 226.919 69.6738 226.919 83.7592V128.981C226.919 143.066 220.618 151.221 209.868 151.221H221.73C232.479 151.221 238.78 143.066 238.78 128.981V83.7592C238.78 69.6738 232.479 61.519 221.73 61.519Z" fill="#F4A23F"/>
<path d="M221.729 57.8124H200.972V45.5803C200.972 44.0976 200.601 42.615 199.86 41.5029C202.084 38.5376 203.196 35.2016 203.196 31.4949C203.196 21.4868 195.041 13.7027 185.033 13.7027C182.809 13.7027 180.215 14.0734 178.361 15.1854C172.06 7.40136 161.31 4.80667 152.414 9.62537C146.484 -0.012032 133.51 -2.97739 123.873 3.32399C118.683 6.66002 115.347 11.8494 114.606 17.7801C105.339 14.4441 94.9605 18.8921 91.6245 28.1588C90.8832 30.0122 90.5125 32.2362 90.5125 34.0896V70.4152C90.5125 76.7165 95.3312 82.2766 101.633 83.0179V157.152C100.891 166.048 107.563 174.203 116.459 174.944C117.571 174.944 118.313 174.944 119.425 174.944H183.551C192.447 175.685 200.601 169.013 201.343 160.117C201.343 159.005 201.343 158.264 201.343 157.152V155.298H221.729C234.703 155.298 242.487 145.661 242.487 129.352V83.7593C242.487 67.4498 234.703 57.8124 221.729 57.8124ZM193.559 157.151C194.3 162.341 190.964 166.789 185.775 167.53C185.033 167.53 183.921 167.53 183.18 167.53H119.054C113.865 168.271 109.417 164.935 108.675 159.746C108.675 159.005 108.675 157.893 108.675 157.151V81.9055C113.123 79.6814 116.089 75.2334 116.089 70.4147V61.8893C122.39 64.1133 129.062 62.6306 133.881 58.5533C139.812 68.1907 152.414 71.5267 162.422 65.596C168.353 61.8893 172.06 55.2173 172.43 48.1745C172.43 47.8039 172.43 47.0625 172.43 46.6919C172.43 46.3212 172.43 45.9505 172.43 45.5799H193.559C193.559 45.5799 193.929 45.5798 193.929 45.9505V157.151H193.559ZM193.188 37.7963H168.353C166.129 37.7963 164.646 39.2789 164.646 41.5029C164.646 41.8736 164.646 41.8736 164.646 42.2443V42.615C164.646 43.727 164.646 44.839 164.646 45.951C164.646 46.6923 164.646 47.4337 164.646 48.175C164.646 55.5884 158.345 61.1484 150.932 61.1484C144.63 61.1484 139.441 56.7004 138.329 50.399C137.958 48.9163 136.846 47.4337 134.993 47.4337C133.51 47.4337 132.027 48.175 131.286 49.6577C128.691 54.8471 122.39 57.0711 117.201 54.4764C116.089 54.1057 115.347 53.3644 114.606 52.623C113.123 51.1404 110.899 51.1404 109.417 52.623C108.675 53.3644 108.305 54.1057 108.305 55.2177V70.4152C108.305 73.3805 105.71 75.9752 102.745 75.9752C99.7792 75.9752 97.1846 73.3805 97.1846 70.4152V34.0896C97.1846 28.1588 102.374 23.7108 107.934 24.0815C110.899 24.0815 113.494 25.5642 115.347 27.4175C116.83 28.9002 119.054 29.2709 120.537 27.7882C121.649 26.6762 122.019 25.1935 121.649 23.7108C121.278 22.5988 120.907 21.1161 120.907 20.0041C120.907 12.5907 126.838 6.66002 133.881 6.66002C139.812 6.66002 145.001 10.3667 146.854 15.9268C147.596 17.7801 149.449 18.8921 151.673 18.1508C152.044 18.1508 152.414 17.7801 152.785 17.4094C158.345 12.5907 166.87 13.3321 171.318 19.2628C172.06 20.0041 172.43 21.1161 173.172 21.8575C173.913 23.7108 176.137 24.4522 177.991 23.3401L178.361 22.9695C180.215 21.8575 182.439 21.1161 184.663 21.1161C190.223 21.1161 195.041 25.5642 195.041 31.1242C195.783 33.7189 194.671 35.9429 193.188 37.7963ZM200.972 85.9833H210.609C214.316 85.9833 216.169 88.9486 216.169 94.5087V118.973C216.169 124.533 214.316 127.498 210.609 127.498H200.972V85.9833ZM235.074 129.351C235.074 136.394 233.22 147.885 221.729 147.885H200.972V134.541H210.609C218.764 134.541 223.583 128.61 223.583 118.602V94.1376C223.583 84.5001 218.764 78.1988 210.609 78.1988H200.972V65.2253H221.729C233.22 65.2253 235.074 76.7161 235.074 83.7588V129.351Z" fill="#4A2328"/>
<path d="M124.614 75.9751C122.39 75.9751 120.907 77.4578 120.907 79.6818V140.472C120.907 142.696 122.39 144.178 124.614 144.178C126.838 144.178 128.321 142.696 128.321 140.472V79.6818C128.321 77.4578 126.467 75.9751 124.614 75.9751Z" fill="#4A2328"/>
<path d="M142.036 75.9751C139.812 75.9751 138.329 77.4578 138.329 79.6818V140.472C138.329 142.696 139.812 144.178 142.036 144.178C144.26 144.178 145.742 142.696 145.742 140.472V79.6818C145.742 77.4578 144.26 75.9751 142.036 75.9751Z" fill="#4A2328"/>
<path d="M159.828 75.9751C157.604 75.9751 156.121 77.4578 156.121 79.6818V140.472C156.121 142.696 157.604 144.178 159.828 144.178C162.052 144.178 163.534 142.696 163.534 140.472V79.6818C163.534 77.4578 161.681 75.9751 159.828 75.9751Z" fill="#4A2328"/>
<path d="M177.249 75.9751C175.025 75.9751 173.542 77.4578 173.542 79.6818V140.472C173.542 142.696 175.025 144.178 177.249 144.178C179.473 144.178 180.956 142.696 180.956 140.472V79.6818C180.956 77.4578 179.473 75.9751 177.249 75.9751Z" fill="#4A2328"/>
</g>
<defs>
<clipPath id="clip0">
<rect width="129" height="129" fill="white" transform="translate(0 46)"/>
</clipPath>
<clipPath id="clip1">
<rect width="175" height="175" fill="white" transform="translate(79)"/>
</clipPath>
</defs>
</svg>
