<svg width="572" height="572" viewBox="0 0 572 572" fill="none" xmlns="http://www.w3.org/2000/svg">
<path d="M35.75 294.938H536.25V527.312H35.75V294.938Z" fill="#F4A23F"/>
<path d="M35.75 294.938V466.251C54.4383 471.471 74.1187 474.313 94.4694 474.313C201.701 474.313 290.791 396.905 309.059 294.938H35.75Z" fill="#FBCF4C"/>
<path d="M536.25 53.625H35.75C25.8741 53.625 17.875 45.6259 17.875 35.75C17.875 25.8741 25.8741 17.875 35.75 17.875H536.25C546.126 17.875 554.125 25.8741 554.125 35.75C554.125 45.6259 546.126 53.625 536.25 53.625Z" fill="#512C31"/>
<path d="M98.3125 17.875H134.062V53.625H98.3125V17.875Z" fill="#A8B0BC"/>
<path d="M536.25 294.938H35.75C25.8741 294.938 17.875 286.938 17.875 277.062C17.875 267.187 25.8741 259.188 35.75 259.188H536.25C546.126 259.188 554.125 267.187 554.125 277.062C554.125 286.938 546.126 294.938 536.25 294.938Z" fill="#512C31"/>
<path d="M196.625 402.188H89.375V375.375C89.375 365.499 97.3741 357.5 107.25 357.5H178.75C188.626 357.5 196.625 365.499 196.625 375.375V402.188Z" fill="#512C31"/>
<path d="M160.875 492.251V402.188H125.125V492.251C125.125 505.183 117.948 516.775 106.848 523.389C96.382 529.627 89.375 541.058 89.375 554.125H196.625C196.625 541.058 189.618 529.627 179.152 523.398C168.052 516.775 160.875 505.183 160.875 492.251Z" fill="#E7E4DD"/>
<path d="M339.625 402.188H232.375V375.375C232.375 365.499 240.374 357.5 250.25 357.5H321.75C331.626 357.5 339.625 365.499 339.625 375.375V402.188Z" fill="#512C31"/>
<path d="M303.875 492.251V402.188H268.125V492.251C268.125 505.183 260.948 516.775 249.848 523.389C239.382 529.627 232.375 541.058 232.375 554.125H339.625C339.625 541.058 332.618 529.627 322.152 523.398C311.052 516.775 303.875 505.183 303.875 492.251Z" fill="#E7E4DD"/>
<path d="M482.625 402.188H375.375V375.375C375.375 365.499 383.374 357.5 393.25 357.5H464.75C474.626 357.5 482.625 365.499 482.625 375.375V402.188Z" fill="#512C31"/>
<path d="M446.875 492.251V402.188H411.125V492.251C411.125 505.183 403.948 516.775 392.848 523.389C382.382 529.627 375.375 541.058 375.375 554.125H482.625C482.625 541.058 475.618 529.627 465.152 523.398C454.052 516.775 446.875 505.183 446.875 492.251Z" fill="#E7E4DD"/>
<path d="M89.375 94.6124C89.375 94.5945 89.3661 94.5856 89.3661 94.5677V53.625H71.5V94.6571C71.4911 102.737 68.2825 110.476 62.5625 116.188C56.8425 121.907 53.625 129.674 53.625 137.763V143C53.625 147.933 57.629 151.938 62.5625 151.938H98.3125C103.246 151.938 107.25 147.933 107.25 143V137.763C107.25 129.665 104.033 121.907 98.3125 116.188C92.5925 110.468 89.375 102.701 89.375 94.6124Z" fill="#C7E2FC"/>
<path d="M169.813 94.6124C169.813 94.5945 169.804 94.5856 169.804 94.5677V53.625H151.929V94.6571C151.92 102.737 148.711 110.476 142.991 116.188C137.271 121.907 134.054 129.674 134.054 137.763V143C134.054 147.933 138.058 151.938 142.991 151.938H178.741C183.675 151.938 187.679 147.933 187.679 143V137.763C187.679 129.665 184.461 121.907 178.741 116.188C173.03 110.468 169.813 102.701 169.813 94.6124Z" fill="#C7E2FC"/>
<path d="M259.188 116.188C253.468 110.468 250.25 102.701 250.25 94.6124C250.25 94.5945 250.241 94.5856 250.241 94.5677V53.625H232.366V94.6571C232.357 102.737 229.149 110.476 223.429 116.188C217.709 121.907 214.491 129.674 214.491 137.763V143C214.491 147.933 218.495 151.938 223.429 151.938H259.179C264.112 151.938 268.116 147.933 268.116 143V137.763C268.125 129.674 264.908 121.907 259.188 116.188Z" fill="#C7E2FC"/>
<path d="M464.75 259.188V223.438C464.75 215.34 467.968 207.582 473.688 201.862C479.407 196.142 482.625 188.376 482.625 180.287V160.875H518.375V180.287C518.375 188.385 521.593 196.142 527.312 201.862C533.032 207.582 536.25 215.349 536.25 223.438V259.188H464.75Z" fill="#F7D881"/>
<path d="M509.429 160.866H491.554V134.054L476.288 118.797L488.935 106.151L506.81 124.026C508.49 125.706 509.42 127.976 509.42 130.354V160.866H509.429Z" fill="#E7E4DD"/>
<path d="M348.562 259.188L375.375 196.625H411.125L437.938 259.188H348.562Z" fill="#E7E4DD"/>
<path d="M35.75 446.875H89.375V464.75H35.75V446.875Z" fill="#512C31"/>
<path d="M482.625 446.875H536.25V464.75H482.625V446.875Z" fill="#512C31"/>
<path d="M482.625 482.625H536.25V500.5H482.625V482.625Z" fill="#512C31"/>
<path d="M35.75 482.625H89.375V500.5H35.75V482.625Z" fill="#512C31"/>
<path d="M437.938 17.875H473.688V53.625H437.938V17.875Z" fill="#A8B0BC"/>
<path d="M375.375 160.875V125.125C375.375 115.249 383.374 107.25 393.25 107.25C403.126 107.25 411.125 115.249 411.125 125.125V160.875" fill="#F7D881"/>
<path d="M393.25 205.562C408.058 205.562 420.062 193.558 420.062 178.75C420.062 163.942 408.058 151.938 393.25 151.938C378.442 151.938 366.438 163.942 366.438 178.75C366.438 193.558 378.442 205.562 393.25 205.562Z" fill="#512C31"/>
<path d="M545.179 251.886V223.438C545.179 212.891 541.076 202.989 533.631 195.535C529.609 191.522 527.304 185.963 527.304 180.278V160.875C527.304 155.933 523.309 151.938 518.366 151.938H509.429V130.353C509.429 127.976 508.49 125.706 506.819 124.026L488.944 106.151L476.297 118.797L491.563 134.062V151.938H482.625C477.683 151.938 473.688 155.933 473.688 160.875V180.278C473.688 186.043 471.444 191.459 467.36 195.535C459.906 202.989 455.813 212.9 455.813 223.438V250.241H443.827L422.136 199.628C426.408 193.738 429 186.561 429 178.75C429 169.759 425.559 161.635 420.063 155.352V125.125C420.063 110.342 408.033 98.3125 393.25 98.3125C378.467 98.3125 366.438 110.342 366.438 125.125V155.352C360.941 161.635 357.5 169.759 357.5 178.75C357.5 186.561 360.092 193.738 364.364 199.628L342.673 250.241H35.7411C20.9585 250.241 8.92859 262.271 8.92859 277.062C8.92859 288.699 16.4272 298.521 26.8036 302.222V527.312C26.8036 532.246 30.7987 536.25 35.7411 536.25H84.2538C81.805 541.827 80.4375 547.887 80.4375 554.125C80.4375 559.067 84.4326 563.062 89.375 563.062H196.625C199.002 563.062 201.273 562.124 202.953 560.453C204.633 558.781 205.563 556.502 205.563 554.125C205.563 547.887 204.186 541.818 201.737 536.25H227.272C224.814 541.818 223.438 547.887 223.438 554.125C223.438 559.067 227.433 563.062 232.375 563.062H339.625C342.002 563.062 344.273 562.124 345.953 560.453C347.633 558.781 348.563 556.502 348.563 554.125C348.563 547.887 347.186 541.818 344.737 536.25H370.272C367.814 541.818 366.438 547.887 366.438 554.125C366.438 559.067 370.433 563.062 375.375 563.062H482.625C485.002 563.062 487.273 562.124 488.953 560.453C490.633 558.781 491.563 556.502 491.563 554.125C491.563 547.887 490.186 541.827 487.746 536.25H536.25C541.192 536.25 545.188 532.246 545.188 527.312V302.222C555.564 298.521 563.063 288.69 563.063 277.054C563.063 265.417 555.564 255.586 545.179 251.886ZM473.688 223.438C473.688 217.673 475.931 212.257 480.015 208.172C487.46 200.727 491.563 190.825 491.563 180.278V169.812H509.438V180.278C509.438 190.816 513.54 200.727 520.994 208.172C525.069 212.248 527.313 217.664 527.313 223.438V250.241H473.688V223.438ZM375.375 178.75C375.375 168.892 383.392 160.875 393.25 160.875C403.108 160.875 411.125 168.892 411.125 178.75C411.125 188.608 403.108 196.625 393.25 196.625C383.383 196.616 375.375 188.599 375.375 178.75ZM393.25 116.188C398.175 116.188 402.179 120.192 402.179 125.125V144.269C399.31 143.518 396.351 143 393.25 143C390.149 143 387.19 143.518 384.313 144.269V125.125C384.313 120.192 388.317 116.188 393.25 116.188ZM378.771 211.372C383.204 213.347 388.084 214.491 393.25 214.491C398.407 214.491 403.287 213.347 407.72 211.372L424.379 250.241H362.112L378.771 211.372ZM35.7411 268.116H464.741H536.241H536.25C541.175 268.116 545.188 272.129 545.188 277.062C545.188 281.987 541.175 286 536.25 286H35.7411C30.8165 286 26.8036 281.987 26.8036 277.062C26.8036 272.129 30.8165 268.116 35.7411 268.116ZM99.8587 545.188C101.932 539.369 105.981 534.311 111.415 531.075C125.59 522.62 134.063 508.106 134.063 492.251V411.125H151.938V492.251C151.938 508.106 160.401 522.611 174.585 531.066C180.019 534.302 184.077 539.36 186.141 545.179H99.8587V545.188ZM98.3125 393.241V375.375C98.3125 370.442 102.317 366.438 107.25 366.438H178.75C183.684 366.438 187.688 370.442 187.688 375.375V393.241H98.3125ZM242.859 545.188C244.932 539.369 248.981 534.311 254.415 531.075C268.59 522.62 277.063 508.106 277.063 492.251V411.125H294.938V492.251C294.938 508.106 303.401 522.611 317.585 531.066C323.019 534.302 327.077 539.36 329.141 545.179H242.859V545.188ZM241.313 393.241V375.375C241.313 370.442 245.317 366.438 250.25 366.438H321.75C326.684 366.438 330.688 370.442 330.688 375.375V393.241H241.313ZM385.859 545.188C387.932 539.369 391.981 534.311 397.415 531.075C411.59 522.62 420.063 508.106 420.063 492.251V411.125H437.938V492.251C437.938 508.106 446.401 522.611 460.585 531.066C466.019 534.302 470.077 539.36 472.141 545.179H385.859V545.188ZM384.313 393.241V375.375C384.313 370.442 388.317 366.438 393.25 366.438H464.75C469.684 366.438 473.688 370.442 473.688 375.375V393.241H384.313ZM473.688 518.375V518.446C472.409 517.481 471.114 516.543 469.728 515.721C461.014 510.528 455.804 501.76 455.804 492.26V411.125H482.616C487.559 411.125 491.554 407.13 491.554 402.188V375.375C491.554 360.592 479.524 348.562 464.741 348.562H393.241C378.458 348.562 366.429 360.592 366.429 375.375V402.179C366.429 407.121 370.424 411.116 375.366 411.116H402.179V492.251C402.179 501.742 396.977 510.519 388.263 515.712C386.878 516.543 385.573 517.481 384.304 518.446V518.375H330.679V518.446C329.401 517.481 328.105 516.543 326.719 515.721C318.005 510.528 312.795 501.76 312.795 492.26V411.125H339.607C344.55 411.125 348.545 407.13 348.545 402.188V375.375C348.545 360.592 336.515 348.562 321.732 348.562H250.232C235.45 348.562 223.42 360.592 223.42 375.375V402.179C223.42 407.121 227.415 411.116 232.357 411.116H259.17V492.251C259.17 501.742 253.968 510.519 245.254 515.712C243.869 516.543 242.564 517.481 241.295 518.446V518.375H187.67V518.446C186.392 517.481 185.096 516.543 183.71 515.721C174.996 510.528 169.786 501.76 169.786 492.26V411.125H196.598C201.541 411.125 205.536 407.13 205.536 402.188V375.375C205.536 360.592 193.506 348.562 178.723 348.562H107.223C92.4406 348.562 80.4107 360.592 80.4107 375.375V402.179C80.4107 407.121 84.4058 411.116 89.3482 411.116H116.161V492.251C116.161 501.742 110.959 510.519 102.245 515.712C100.86 516.543 99.5548 517.481 98.2857 518.446V518.375H44.6875V500.491H89.375V482.616H44.6875V464.741H89.375V446.866H44.6875V303.875H527.313V446.875H482.625V464.75H527.313V482.625H482.625V500.5H527.313V518.375H473.688Z" fill="black"/>
<path d="M536.25 8.9375H35.7411C20.9585 8.9375 8.92859 20.9674 8.92859 35.75C8.92859 50.5326 20.9585 62.5625 35.7411 62.5625H71.4911V81.4653C66.2627 83.5567 62.5536 88.6421 62.5536 94.6124C62.5536 100.377 60.3103 105.793 56.2258 109.869C48.7809 117.314 44.6875 127.225 44.6875 137.763V142.991C44.6875 152.849 52.7045 160.866 62.5625 160.866H98.3125C108.171 160.866 116.188 152.849 116.188 142.991V137.763C116.188 127.225 112.085 117.314 104.64 109.86C100.565 105.784 98.3125 100.368 98.3125 94.6034C98.3125 88.6421 94.6035 83.5478 89.375 81.4564V62.5625H151.938V81.4653C146.709 83.5567 143 88.6421 143 94.6124C143 100.377 140.757 105.793 136.672 109.869C129.218 117.314 125.125 127.225 125.125 137.763V142.991C125.125 152.849 133.142 160.866 143 160.866H178.75C188.608 160.866 196.625 152.849 196.625 142.991V137.763C196.625 127.225 192.523 117.314 185.078 109.86C181.002 105.784 178.75 100.368 178.75 94.6034C178.75 88.6421 175.041 83.5478 169.813 81.4564V62.5625H232.375V81.4653C227.147 83.5567 223.438 88.6421 223.438 94.6124C223.438 100.377 221.194 105.793 217.11 109.869C209.656 117.314 205.563 127.225 205.563 137.763V142.991C205.563 152.849 213.579 160.866 223.438 160.866H259.188C269.046 160.866 277.063 152.849 277.063 142.991V137.763C277.063 127.225 272.96 117.314 265.515 109.86C261.44 105.784 259.188 100.368 259.188 94.6034C259.188 88.6421 255.478 83.5478 250.25 81.4564V62.5625H536.25C551.033 62.5625 563.063 50.5326 563.063 35.75C563.063 20.9584 551.033 8.9375 536.25 8.9375V8.9375ZM98.3036 137.763V142.991H62.5625V137.763C62.5625 131.998 64.8058 126.582 68.8903 122.506C75.4504 115.928 79.4186 107.447 80.2588 98.3125H80.5984C81.4385 107.447 85.4157 115.937 91.9848 122.515C96.0692 126.582 98.3036 131.998 98.3036 137.763V137.763ZM178.741 137.763V142.991H142.991V137.763C142.991 131.998 145.234 126.582 149.319 122.506C155.888 115.937 159.856 107.447 160.696 98.3125H161.036C161.876 107.447 165.853 115.937 172.422 122.515C176.507 126.582 178.741 131.998 178.741 137.763V137.763ZM259.179 137.763V142.991H223.429V137.763C223.429 131.998 225.672 126.582 229.756 122.506C236.325 115.937 240.294 107.447 241.134 98.3125H241.473C242.314 107.447 246.291 115.937 252.86 122.515C256.944 126.582 259.179 131.998 259.179 137.763V137.763ZM142.991 26.8125H428.991V44.6875H142.991V26.8125ZM125.125 44.6875H107.25V26.8125H125.125V44.6875ZM446.866 26.8125H464.741V44.6875H446.866V26.8125ZM26.8036 35.75C26.8036 30.8254 30.8165 26.8125 35.7411 26.8125H89.3661V44.6875H35.7411C30.8165 44.6875 26.8036 40.6746 26.8036 35.75ZM536.25 44.6875H482.616V26.8125H536.25C541.175 26.8125 545.188 30.8165 545.188 35.75C545.188 40.6746 541.175 44.6875 536.25 44.6875Z" fill="black"/>
</svg>
