<svg width="419" height="228" viewBox="0 0 419 228" fill="none" xmlns="http://www.w3.org/2000/svg">
<g clip-path="url(#clip0)">
<path d="M17.5032 157.464C13.6779 157.464 10.6723 154.458 10.6723 150.633V123.856C10.6723 118.118 15.5905 113.473 21.3285 113.746C24.0609 113.746 26.7932 115.112 28.7059 117.025C28.4326 115.932 28.1594 114.839 28.1594 113.473C28.4326 106.642 34.1706 101.177 41.0015 101.177C46.193 101.177 50.838 104.729 52.4774 109.647C57.6689 105.002 65.5928 105.549 70.2378 111.014C70.7843 111.833 71.604 112.653 71.8772 113.473C73.7899 112.106 75.7025 111.56 78.1616 111.56C83.8996 111.56 88.5446 116.205 88.5446 121.943C88.5446 124.402 87.7249 126.588 86.0855 128.501L85.2658 129.594H65.866C65.866 129.867 65.866 129.867 65.866 130.14C65.866 131.233 65.866 132.053 65.866 133.146C65.866 133.692 65.866 134.239 65.866 134.512C65.866 141.343 60.128 146.807 53.0239 146.807C47.2859 146.807 42.0944 142.436 41.0015 136.698C38.5424 141.889 32.2579 144.075 27.0665 141.616C25.9735 141.07 25.1538 140.523 24.3341 139.703V150.906C24.3341 154.731 21.3285 157.737 17.5032 157.464Z" fill="white"/>
<path d="M65.866 129.594H55.2098C55.2098 129.867 55.2098 129.867 55.2098 130.14C55.2098 131.233 55.2098 132.053 55.2098 133.146C55.2098 133.692 55.2098 134.239 55.2098 134.512C55.2098 139.157 52.2042 143.529 48.1057 145.441C49.7451 146.261 51.6577 146.534 53.2971 146.534C60.128 146.534 65.866 141.07 65.866 134.239C65.866 133.966 65.866 133.419 65.866 132.873C65.866 131.78 65.866 130.96 65.866 129.867C65.866 129.867 65.866 129.867 65.866 129.594Z" fill="#F7EEBA"/>
<path d="M78.1616 111.833C76.249 111.833 74.6096 112.38 72.9702 113.199C77.8884 115.932 79.5278 121.943 76.7955 126.861C76.5222 127.408 75.9758 127.954 75.7025 128.501L74.8828 129.594H85.539L86.3587 128.501C87.9982 126.588 88.8179 124.402 88.8179 121.943C88.5446 116.478 83.8996 111.833 78.1616 111.833Z" fill="#F7EEBA"/>
<path d="M29.5256 225.226C24.3341 225.772 19.6891 222.22 19.1426 217.029C19.1426 216.209 19.1426 215.663 19.1426 214.843V157.737L20.782 156.917C23.2412 155.824 24.6073 153.365 24.6073 150.906V140.796L28.1594 142.162C29.2524 142.435 30.3453 142.709 31.7115 142.709C34.1706 142.709 36.903 141.889 38.8156 140.249L41.2748 138.064L42.9142 140.796C45.1001 144.621 49.1986 146.807 53.5704 146.807C60.4013 146.807 66.1393 141.342 66.1393 134.512C66.1393 134.238 66.1393 133.692 66.1393 133.145L66.4125 129.593H84.4461C86.0855 129.593 87.4517 130.959 87.4517 132.599V214.843C87.9982 220.034 84.4461 224.68 79.2546 225.226C78.4349 225.226 77.8884 225.226 77.0687 225.226H29.5256Z" fill="#FBCF4C"/>
<path d="M84.1729 129.594H69.6913C71.3307 129.594 72.4237 130.96 72.4237 132.599V214.843C72.9702 220.035 69.4181 224.68 64.2266 225.226C63.4069 225.226 62.8604 225.226 62.0407 225.226H76.5222C81.7137 225.773 86.3587 222.221 86.9052 217.029C86.9052 216.209 86.9052 215.663 86.9052 214.843V132.599C86.9052 130.96 85.8123 129.594 84.1729 129.594Z" fill="#F4A23F"/>
<path d="M87.1785 210.745V195.443H97.015C103.299 195.443 103.846 189.159 103.846 186.427V168.393C103.846 165.661 103.299 159.376 97.015 159.376H87.1785V144.348H105.212C113.136 144.348 117.781 150.359 117.781 160.742V194.077C117.781 204.46 113.136 210.471 105.212 210.471L87.1785 210.745Z" fill="#FBCF4C"/>
<path d="M105.212 144.348H96.4685C104.392 144.348 109.037 150.36 109.037 160.743V194.077C109.037 204.46 104.392 210.472 96.4685 210.472H105.212C113.136 210.472 117.781 204.46 117.781 194.077V160.743C117.781 150.36 113.136 144.348 105.212 144.348Z" fill="#F4A23F"/>
<path d="M105.212 141.616H89.9108V132.599C89.9108 131.506 89.6376 130.413 89.0911 129.594C90.7305 127.408 91.5502 124.949 91.5502 122.216C91.5502 114.839 85.539 109.101 78.1616 109.101C76.5222 109.101 74.6096 109.374 73.2434 110.194C68.5984 104.456 60.6745 102.543 54.1168 106.095C49.7451 98.9912 40.1818 96.8053 33.0776 101.45C29.2523 103.909 26.7932 107.735 26.2467 112.107C19.4158 109.647 11.7652 112.926 9.30608 119.757C8.75961 121.123 8.48637 122.763 8.48637 124.129V150.906C8.48637 155.551 12.0384 159.65 16.6835 160.196V214.843C16.137 221.401 21.0552 227.412 27.6129 227.959C28.4326 227.959 28.9791 227.959 29.7988 227.959H77.0687C83.6264 228.505 89.6376 223.587 90.184 217.029C90.184 216.21 90.184 215.663 90.184 214.843V213.477H105.212C114.775 213.477 120.513 206.373 120.513 194.351V160.743C120.513 148.72 114.775 141.616 105.212 141.616ZM84.4461 214.843C84.9925 218.668 82.5334 221.947 78.7081 222.494C78.1616 222.494 77.3419 222.494 76.7955 222.494H29.5256C25.7003 223.04 22.4214 220.581 21.875 216.756C21.875 216.209 21.875 215.39 21.875 214.843V159.376C25.1538 157.737 27.3397 154.458 27.3397 150.906V144.621C31.9847 146.261 36.903 145.168 40.455 142.162C44.8268 149.266 54.1168 151.725 61.4942 147.354C65.866 144.621 68.5984 139.703 68.8716 134.512C68.8716 134.238 68.8716 133.692 68.8716 133.419C68.8716 133.145 68.8716 132.872 68.8716 132.599H84.4461C84.4461 132.599 84.7193 132.599 84.7193 132.872V214.843H84.4461ZM84.1728 126.861H65.866C64.2266 126.861 63.1336 127.954 63.1336 129.594C63.1336 129.867 63.1336 129.867 63.1336 130.14V130.413C63.1336 131.233 63.1336 132.053 63.1336 132.873C63.1336 133.419 63.1336 133.965 63.1336 134.512C63.1336 139.977 58.4886 144.075 53.0239 144.075C48.3789 144.075 44.5536 140.796 43.7339 136.151C43.4606 135.058 42.6409 133.965 41.2747 133.965C40.1818 133.965 39.0888 134.512 38.5424 135.605C36.6297 139.43 31.9847 141.07 28.1594 139.157C27.3397 138.884 26.7932 138.337 26.2467 137.791C25.1538 136.698 23.5144 136.698 22.4214 137.791C21.875 138.337 21.6017 138.884 21.6017 139.703V150.906C21.6017 153.092 19.6891 155.005 17.5032 155.005C15.3173 155.005 13.4046 153.092 13.4046 150.906V124.129C13.4046 119.757 17.2299 116.478 21.3285 116.752C23.5144 116.752 25.427 117.845 26.7932 119.211C27.8862 120.304 29.5256 120.577 30.6185 119.484C31.4382 118.664 31.7115 117.571 31.4382 116.478C31.165 115.659 30.8918 114.566 30.8918 113.746C30.8918 108.281 35.2635 103.909 40.455 103.909C44.8268 103.909 48.6521 106.642 50.0183 110.74C50.5648 112.107 51.931 112.926 53.5704 112.38C53.8436 112.38 54.1168 112.107 54.3901 111.833C58.4886 108.281 64.7731 108.828 68.0519 113.199C68.5984 113.746 68.8716 114.566 69.4181 115.112C69.9646 116.478 71.604 117.025 72.9702 116.205L73.2434 115.932C74.6096 115.112 76.249 114.566 77.8884 114.566C81.987 114.566 85.539 117.845 85.539 121.943C86.0855 123.856 85.2658 125.495 84.1728 126.861ZM89.9108 162.382H97.015C99.7473 162.382 101.114 164.568 101.114 168.666V186.7C101.114 190.799 99.7473 192.985 97.015 192.985H89.9108V162.382ZM115.049 194.35C115.049 199.542 113.682 208.012 105.212 208.012H89.9108V198.176H97.015C103.026 198.176 106.578 193.804 106.578 186.426V168.393C106.578 161.289 103.026 156.644 97.015 156.644H89.9108V147.08H105.212C113.682 147.08 115.049 155.551 115.049 160.742V194.35Z" fill="#4A2328"/>
<path d="M33.6241 155.005C31.9847 155.005 30.8918 156.098 30.8918 157.737V202.548C30.8918 204.187 31.9847 205.28 33.6241 205.28C35.2635 205.28 36.3565 204.187 36.3565 202.548V157.737C36.3565 156.098 34.9903 155.005 33.6241 155.005Z" fill="#4A2328"/>
<path d="M46.4662 155.005C44.8268 155.005 43.7339 156.098 43.7339 157.737V202.548C43.7339 204.187 44.8268 205.28 46.4662 205.28C48.1056 205.28 49.1986 204.187 49.1986 202.548V157.737C49.1986 156.098 48.1056 155.005 46.4662 155.005Z" fill="#4A2328"/>
<path d="M59.5816 155.005C57.9422 155.005 56.8492 156.098 56.8492 157.737V202.548C56.8492 204.187 57.9422 205.28 59.5816 205.28C61.221 205.28 62.3139 204.187 62.3139 202.548V157.737C62.3139 156.098 60.9478 155.005 59.5816 155.005Z" fill="#4A2328"/>
<path d="M72.4237 155.005C70.7843 155.005 69.6913 156.098 69.6913 157.737V202.548C69.6913 204.187 70.7843 205.28 72.4237 205.28C74.0631 205.28 75.156 204.187 75.156 202.548V157.737C75.156 156.098 74.0631 155.005 72.4237 155.005Z" fill="#4A2328"/>
</g>
<g clip-path="url(#clip1)">
<path d="M105.745 132.311C100.555 132.311 96.4779 128.234 96.4779 123.045V86.7189C96.4779 78.9349 103.15 72.6335 110.934 73.0042C114.641 73.0042 118.347 74.8575 120.942 77.4522C120.571 75.9695 120.201 74.4868 120.201 72.6335C120.571 63.3668 128.355 55.9534 137.622 55.9534C144.665 55.9534 150.966 60.7721 153.19 67.4441C160.233 61.1427 170.982 61.8841 177.284 69.2975C178.025 70.4095 179.137 71.5215 179.508 72.6335C182.103 70.7801 184.697 70.0388 188.033 70.0388C195.817 70.0388 202.119 76.3402 202.119 84.1243C202.119 87.4603 201.007 90.4256 198.783 93.0203L197.671 94.503H171.353C171.353 94.8737 171.353 94.8737 171.353 95.2443C171.353 96.727 171.353 97.839 171.353 99.3217C171.353 100.063 171.353 100.804 171.353 101.175C171.353 110.442 163.569 117.855 153.932 117.855C146.148 117.855 139.105 111.924 137.622 104.14C134.286 111.183 125.761 114.148 118.718 110.812C117.235 110.071 116.123 109.33 115.011 108.218V123.415C115.011 128.605 110.934 132.682 105.745 132.311Z" fill="white"/>
<path d="M171.353 94.5029H156.897C156.897 94.8736 156.897 94.8736 156.897 95.2443C156.897 96.7269 156.897 97.839 156.897 99.3216C156.897 100.063 156.897 100.804 156.897 101.175C156.897 107.476 152.82 113.407 147.26 116.002C149.484 117.114 152.078 117.484 154.302 117.484C163.569 117.484 171.353 110.071 171.353 100.804C171.353 100.434 171.353 99.6923 171.353 98.951C171.353 97.4683 171.353 96.3563 171.353 94.8736C171.353 94.8736 171.353 94.8736 171.353 94.5029Z" fill="#F7EEBA"/>
<path d="M188.033 70.4094C185.439 70.4094 183.215 71.1508 180.991 72.2628C187.663 75.9695 189.887 84.1242 186.18 90.7962C185.809 91.5376 185.068 92.2789 184.697 93.0203L183.585 94.5029H198.041L199.153 93.0203C201.377 90.4256 202.489 87.4602 202.489 84.1242C202.119 76.7108 195.817 70.4094 188.033 70.4094Z" fill="#F7EEBA"/>
<path d="M122.054 224.237C115.011 224.978 108.71 220.159 107.969 213.117C107.969 212.005 107.969 211.263 107.969 210.151V132.681L110.193 131.569C113.529 130.087 115.382 126.751 115.382 123.415V109.7L120.201 111.553C121.683 111.924 123.166 112.295 125.019 112.295C128.355 112.295 132.062 111.183 134.657 108.959L137.993 105.993L140.217 109.7C143.182 114.889 148.742 117.855 154.673 117.855C163.94 117.855 171.724 110.441 171.724 101.174C171.724 100.804 171.724 100.062 171.724 99.3211L172.094 94.5024H196.559C198.783 94.5024 200.636 96.3558 200.636 98.5798V210.151C201.377 217.194 196.559 223.495 189.516 224.237C188.404 224.237 187.663 224.237 186.551 224.237H122.054Z" fill="#FBCF4C"/>
<path d="M196.188 94.5029H176.542C178.766 94.5029 180.249 96.3563 180.249 98.5803V210.152C180.991 217.195 176.172 223.496 169.129 224.237C168.017 224.237 167.276 224.237 166.164 224.237H185.809C192.852 224.979 199.153 220.16 199.895 213.117C199.895 212.005 199.895 211.264 199.895 210.152V98.5803C199.895 96.3563 198.412 94.5029 196.188 94.5029Z" fill="#F4A23F"/>
<path d="M200.265 204.591V183.834H213.609C222.135 183.834 222.876 175.308 222.876 171.602V147.137C222.876 143.431 222.135 134.905 213.609 134.905H200.265V114.519H224.73C235.479 114.519 241.78 122.673 241.78 136.759V181.98C241.78 196.066 235.479 204.221 224.73 204.221L200.265 204.591Z" fill="#FBCF4C"/>
<path d="M224.73 114.519H212.868C223.618 114.519 229.919 122.674 229.919 136.759V181.981C229.919 196.066 223.618 204.221 212.868 204.221H224.73C235.479 204.221 241.78 196.066 241.78 181.981V136.759C241.78 122.674 235.479 114.519 224.73 114.519Z" fill="#F4A23F"/>
<path d="M224.73 110.812H203.972V98.5803C203.972 97.0976 203.601 95.615 202.86 94.5029C205.084 91.5376 206.196 88.2016 206.196 84.4949C206.196 74.4868 198.041 66.7027 188.033 66.7027C185.809 66.7027 183.215 67.0734 181.361 68.1854C175.06 60.4014 164.31 57.8067 155.414 62.6254C149.484 52.988 136.51 50.0226 126.873 56.324C121.683 59.66 118.347 64.8494 117.606 70.7801C108.339 67.4441 97.9606 71.8921 94.6245 81.1588C93.8832 83.0122 93.5125 85.2362 93.5125 87.0896V123.415C93.5125 129.717 98.3312 135.277 104.633 136.018V210.152C103.891 219.048 110.563 227.203 119.459 227.944C120.571 227.944 121.313 227.944 122.425 227.944H186.551C195.447 228.685 203.601 222.013 204.343 213.117C204.343 212.005 204.343 211.264 204.343 210.152V208.298H224.73C237.703 208.298 245.487 198.661 245.487 182.352V136.759C245.487 120.45 237.703 110.812 224.73 110.812ZM196.559 210.151C197.3 215.341 193.964 219.789 188.775 220.53C188.033 220.53 186.921 220.53 186.18 220.53H122.054C116.865 221.271 112.417 217.935 111.675 212.746C111.675 212.005 111.675 210.893 111.675 210.151V134.905C116.123 132.681 119.089 128.233 119.089 123.415V114.889C125.39 117.113 132.062 115.631 136.881 111.553C142.812 121.191 155.414 124.527 165.422 118.596C171.353 114.889 175.06 108.217 175.43 101.175C175.43 100.804 175.43 100.063 175.43 99.6919C175.43 99.3212 175.43 98.9505 175.43 98.5799H196.559C196.559 98.5799 196.929 98.5798 196.929 98.9505V210.151H196.559ZM196.188 90.7963H171.353C169.129 90.7963 167.646 92.2789 167.646 94.5029C167.646 94.8736 167.646 94.8736 167.646 95.2443V95.615C167.646 96.727 167.646 97.839 167.646 98.951C167.646 99.6923 167.646 100.434 167.646 101.175C167.646 108.588 161.345 114.148 153.932 114.148C147.63 114.148 142.441 109.7 141.329 103.399C140.958 101.916 139.846 100.434 137.993 100.434C136.51 100.434 135.028 101.175 134.286 102.658C131.691 107.847 125.39 110.071 120.201 107.476C119.089 107.106 118.347 106.364 117.606 105.623C116.123 104.14 113.899 104.14 112.417 105.623C111.675 106.364 111.305 107.106 111.305 108.218V123.415C111.305 126.381 108.71 128.975 105.745 128.975C102.779 128.975 100.185 126.381 100.185 123.415V87.0896C100.185 81.1588 105.374 76.7108 110.934 77.0815C113.899 77.0815 116.494 78.5642 118.347 80.4175C119.83 81.9002 122.054 82.2709 123.537 80.7882C124.649 79.6762 125.019 78.1935 124.649 76.7108C124.278 75.5988 123.907 74.1161 123.907 73.0041C123.907 65.5907 129.838 59.66 136.881 59.66C142.812 59.66 148.001 63.3667 149.854 68.9268C150.596 70.7801 152.449 71.8921 154.673 71.1508C155.044 71.1508 155.414 70.7801 155.785 70.4094C161.345 65.5907 169.87 66.3321 174.318 72.2628C175.06 73.0041 175.43 74.1161 176.172 74.8575C176.913 76.7108 179.137 77.4522 180.991 76.3401L181.361 75.9695C183.215 74.8575 185.439 74.1161 187.663 74.1161C193.223 74.1161 198.041 78.5642 198.041 84.1242C198.783 86.7189 197.671 88.9429 196.188 90.7963ZM203.972 138.983H213.609C217.316 138.983 219.169 141.949 219.169 147.509V171.973C219.169 177.533 217.316 180.498 213.609 180.498H203.972V138.983ZM238.074 182.351C238.074 189.394 236.22 200.885 224.73 200.885H203.972V187.541H213.609C221.764 187.541 226.583 181.61 226.583 171.602V147.138C226.583 137.5 221.764 131.199 213.609 131.199H203.972V118.225H224.73C236.22 118.225 238.074 129.716 238.074 136.759V182.351Z" fill="#4A2328"/>
<path d="M127.614 128.975C125.39 128.975 123.907 130.458 123.907 132.682V193.472C123.907 195.696 125.39 197.178 127.614 197.178C129.838 197.178 131.321 195.696 131.321 193.472V132.682C131.321 130.458 129.467 128.975 127.614 128.975Z" fill="#4A2328"/>
<path d="M145.036 128.975C142.812 128.975 141.329 130.458 141.329 132.682V193.472C141.329 195.696 142.812 197.178 145.036 197.178C147.26 197.178 148.742 195.696 148.742 193.472V132.682C148.742 130.458 147.26 128.975 145.036 128.975Z" fill="#4A2328"/>
<path d="M162.828 128.975C160.604 128.975 159.121 130.458 159.121 132.682V193.472C159.121 195.696 160.604 197.178 162.828 197.178C165.052 197.178 166.534 195.696 166.534 193.472V132.682C166.534 130.458 164.681 128.975 162.828 128.975Z" fill="#4A2328"/>
<path d="M180.249 128.975C178.025 128.975 176.542 130.458 176.542 132.682V193.472C176.542 195.696 178.025 197.178 180.249 197.178C182.473 197.178 183.956 195.696 183.956 193.472V132.682C183.956 130.458 182.473 128.975 180.249 128.975Z" fill="#4A2328"/>
</g>
<g clip-path="url(#clip2)">
<path d="M221.936 103.331C215.175 103.331 209.863 98.0189 209.863 91.2579V43.9308C209.863 33.7893 218.555 25.5795 228.697 26.0624C233.526 26.0624 238.355 28.4771 241.736 31.8576C241.253 29.9258 240.77 27.9941 240.77 25.5795C241.253 13.5062 251.395 3.84766 263.468 3.84766C272.643 3.84766 280.853 10.1257 283.751 18.8185C292.926 10.6087 306.931 11.5745 315.141 21.2331C316.107 22.6819 317.556 24.1307 318.039 25.5795C321.419 23.1648 324.8 22.199 329.146 22.199C339.288 22.199 347.497 30.4088 347.497 40.5503C347.497 44.8967 346.049 48.7601 343.151 52.1406L341.702 54.0723H307.414C307.414 54.5552 307.414 54.5552 307.414 55.0382C307.414 56.9699 307.414 58.4187 307.414 60.3504C307.414 61.3162 307.414 62.2821 307.414 62.765C307.414 74.8383 297.273 84.4969 284.717 84.4969C274.575 84.4969 265.399 76.77 263.468 66.6285C259.121 75.8041 248.014 79.6676 238.838 75.3212C236.907 74.3553 235.458 73.3895 234.009 71.9407V91.7408C234.009 98.5018 228.697 103.814 221.936 103.331Z" fill="white"/>
<path d="M307.414 54.0723H288.58C288.58 54.5552 288.58 54.5552 288.58 55.0381C288.58 56.9698 288.58 58.4186 288.58 60.3503C288.58 61.3162 288.58 62.2821 288.58 62.765C288.58 70.9748 283.268 78.7017 276.024 82.0822C278.922 83.531 282.302 84.0139 285.2 84.0139C297.273 84.0139 307.414 74.3553 307.414 62.2821C307.414 61.7991 307.414 60.8333 307.414 59.8674C307.414 57.9357 307.414 56.4869 307.414 54.5552C307.414 54.5552 307.414 54.5552 307.414 54.0723Z" fill="#F7EEBA"/>
<path d="M329.146 22.6819C325.766 22.6819 322.868 23.6477 319.971 25.0965C328.663 29.9258 331.561 40.5503 326.732 49.243C326.249 50.2089 325.283 51.1747 324.8 52.1406L323.351 54.0723H342.185L343.634 52.1406C346.532 48.7601 347.98 44.8966 347.98 40.5503C347.497 30.8917 339.288 22.6819 329.146 22.6819Z" fill="#F7EEBA"/>
<path d="M243.185 223.097C234.009 224.063 225.799 217.785 224.833 208.609C224.833 207.16 224.833 206.195 224.833 204.746V103.814L227.731 102.365C232.077 100.433 234.492 96.0866 234.492 91.7403V73.8719L240.77 76.2865C242.702 76.7695 244.634 77.2524 247.048 77.2524C251.395 77.2524 256.224 75.8036 259.604 72.906L263.951 69.0426L266.848 73.8719C270.712 80.6329 277.956 84.4963 285.683 84.4963C297.756 84.4963 307.897 74.8377 307.897 62.7645C307.897 62.2816 307.897 61.3157 307.897 60.3499L308.38 54.0718H340.254C343.151 54.0718 345.566 56.4864 345.566 59.384V204.746C346.532 213.921 340.254 222.131 331.078 223.097C329.629 223.097 328.663 223.097 327.214 223.097H243.185Z" fill="#FBCF4C"/>
<path d="M339.771 54.0725H314.175C317.073 54.0725 319.005 56.4872 319.005 59.3847V204.746C319.97 213.922 313.692 222.132 304.517 223.098C303.068 223.098 302.102 223.098 300.653 223.098H326.249C335.424 224.064 343.634 217.786 344.6 208.61C344.6 207.161 344.6 206.195 344.6 204.746V59.3847C344.6 56.4872 342.668 54.0725 339.771 54.0725Z" fill="#F4A23F"/>
<path d="M345.083 197.502V170.458H362.468C373.576 170.458 374.542 159.35 374.542 154.521V122.648C374.542 117.818 373.576 106.711 362.468 106.711H345.083V80.1499H376.956C390.961 80.1499 399.171 90.7744 399.171 109.126V168.043C399.171 186.394 390.961 197.019 376.956 197.019L345.083 197.502Z" fill="#FBCF4C"/>
<path d="M376.956 80.1506H361.502C375.507 80.1506 383.717 90.7751 383.717 109.126V168.044C383.717 186.395 375.507 197.02 361.502 197.02H376.956C390.961 197.02 399.171 186.395 399.171 168.044V109.126C399.171 90.7751 390.961 80.1506 376.956 80.1506Z" fill="#F4A23F"/>
<path d="M376.956 75.3212H349.912V59.3846C349.912 57.4529 349.429 55.5211 348.463 54.0723C351.361 50.2089 352.81 45.8625 352.81 41.0332C352.81 27.9942 342.185 17.8526 329.146 17.8526C326.249 17.8526 322.868 18.3356 320.453 19.7844C312.244 9.64284 298.239 6.26233 286.648 12.5404C278.922 -0.0157499 262.019 -3.87919 249.463 4.33061C242.702 8.67698 238.355 15.438 237.39 23.1649C225.316 18.8185 211.794 24.6136 207.448 36.6869C206.482 39.1015 205.999 41.9991 205.999 44.4138V91.7408C205.999 99.9506 212.277 107.195 220.487 108.16V204.746C219.521 216.337 228.214 226.961 239.804 227.927C241.253 227.927 242.219 227.927 243.668 227.927H327.214C338.805 228.893 349.429 220.2 350.395 208.61C350.395 207.161 350.395 206.195 350.395 204.746V202.332H376.956C393.859 202.332 404 189.776 404 168.527V109.126C404 87.8774 393.859 75.3212 376.956 75.3212ZM340.254 204.746C341.219 211.507 336.873 217.302 330.112 218.268C329.146 218.268 327.697 218.268 326.732 218.268H243.185C236.424 219.234 230.629 214.887 229.663 208.126C229.663 207.16 229.663 205.712 229.663 204.746V106.711C235.458 103.813 239.321 98.0183 239.321 91.7402V80.6329C247.531 83.5304 256.224 81.5987 262.502 76.2865C270.229 88.8427 286.648 93.189 299.687 85.4622C307.414 80.6329 312.244 71.9401 312.727 62.7645C312.727 62.2815 312.727 61.3157 312.727 60.8328C312.727 60.3498 312.727 59.8669 312.727 59.384H340.254C340.254 59.384 340.736 59.384 340.736 59.8669V204.746H340.254ZM339.771 49.243H307.414C304.517 49.243 302.585 51.1748 302.585 54.0723C302.585 54.5553 302.585 54.5553 302.585 55.0382V55.5211C302.585 56.9699 302.585 58.4187 302.585 59.8675C302.585 60.8334 302.585 61.7992 302.585 62.7651C302.585 72.4237 294.375 79.6676 284.717 79.6676C276.507 79.6676 269.746 73.8725 268.297 65.6627C267.814 63.7309 266.365 61.7992 263.951 61.7992C262.019 61.7992 260.087 62.7651 259.121 64.6968C255.741 71.4578 247.531 74.3554 240.77 70.9749C239.321 70.4919 238.355 69.5261 237.39 68.5602C235.458 66.6285 232.56 66.6285 230.629 68.5602C229.663 69.5261 229.18 70.4919 229.18 71.9407V91.7408C229.18 95.6043 225.799 98.9848 221.936 98.9848C218.072 98.9848 214.692 95.6043 214.692 91.7408V44.4138C214.692 36.6869 221.453 30.8917 228.697 31.3747C232.56 31.3747 235.941 33.3064 238.355 35.721C240.287 37.6527 243.185 38.1357 245.116 36.204C246.565 34.7552 247.048 32.8234 246.565 30.8917C246.082 29.4429 245.599 27.5112 245.599 26.0624C245.599 16.4039 253.326 8.67698 262.502 8.67698C270.229 8.67698 276.99 13.5063 279.404 20.7502C280.37 23.1649 282.785 24.6136 285.683 23.6478C286.165 23.6478 286.648 23.1649 287.131 22.6819C294.375 16.4039 305.483 17.3697 311.278 25.0966C312.244 26.0624 312.727 27.5112 313.692 28.4771C314.658 30.8917 317.556 31.8576 319.971 30.4088L320.453 29.9259C322.868 28.4771 325.766 27.5112 328.663 27.5112C335.907 27.5112 342.185 33.3064 342.185 40.5503C343.151 43.9308 341.702 46.8284 339.771 49.243ZM349.912 112.024H362.468C367.298 112.024 369.712 115.887 369.712 123.131V155.005C369.712 162.249 367.298 166.112 362.468 166.112H349.912V112.024ZM394.342 168.526C394.342 177.702 391.927 192.672 376.956 192.672H349.912V175.287H362.468C373.093 175.287 379.371 167.56 379.371 154.521V122.648C379.371 110.092 373.093 101.882 362.468 101.882H349.912V84.9792H376.956C391.927 84.9792 394.342 99.95 394.342 109.126V168.526Z" fill="#4A2328"/>
<path d="M250.429 98.9846C247.531 98.9846 245.599 100.916 245.599 103.814V183.014C245.599 185.912 247.531 187.844 250.429 187.844C253.326 187.844 255.258 185.912 255.258 183.014V103.814C255.258 100.916 252.843 98.9846 250.429 98.9846Z" fill="#4A2328"/>
<path d="M273.126 98.9846C270.229 98.9846 268.297 100.916 268.297 103.814V183.014C268.297 185.912 270.229 187.844 273.126 187.844C276.024 187.844 277.956 185.912 277.956 183.014V103.814C277.956 100.916 276.024 98.9846 273.126 98.9846Z" fill="#4A2328"/>
<path d="M296.307 98.9846C293.409 98.9846 291.478 100.916 291.478 103.814V183.014C291.478 185.912 293.409 187.844 296.307 187.844C299.205 187.844 301.136 185.912 301.136 183.014V103.814C301.136 100.916 298.722 98.9846 296.307 98.9846Z" fill="#4A2328"/>
<path d="M319.005 98.9846C316.107 98.9846 314.175 100.916 314.175 103.814V183.014C314.175 185.912 316.107 187.844 319.005 187.844C321.902 187.844 323.834 185.912 323.834 183.014V103.814C323.834 100.916 321.902 98.9846 319.005 98.9846Z" fill="#4A2328"/>
</g>
<defs>
<clipPath id="clip0">
<rect width="129" height="129" fill="white" transform="translate(0 99)"/>
</clipPath>
<clipPath id="clip1">
<rect width="175" height="175" fill="white" transform="translate(82 53)"/>
</clipPath>
<clipPath id="clip2">
<rect width="228" height="228" fill="white" transform="translate(191)"/>
</clipPath>
</defs>
</svg>
