<svg width="270" height="270" viewBox="0 0 270 270" fill="none" xmlns="http://www.w3.org/2000/svg">
<g clip-path="url(#clip0)">
<path d="M95.8958 244.36L22.6494 224.733L19.3209 237.154C17.7504 243.017 21.8052 249.245 28.331 250.994L53.0882 257.628L77.8453 264.261C84.3712 266.01 90.9967 262.644 92.5682 256.78L95.8958 244.36Z" fill="#F4A23F"/>
<path d="M22.6494 224.733L95.8958 244.36L116.752 166.526L43.5048 146.9L22.6494 224.733ZM83.8128 199.411C81.7245 207.205 73.7136 211.83 65.9195 209.742C58.1253 207.653 53.5 199.643 55.5888 191.848C57.6766 184.054 65.6875 179.429 73.4816 181.517C81.2757 183.606 85.901 191.617 83.8128 199.411Z" fill="#4A2328"/>
<path d="M69.6984 210.242C77.7673 210.242 84.3084 203.7 84.3084 195.631C84.3084 187.563 77.7673 181.021 69.6984 181.021C61.6295 181.021 55.0884 187.563 55.0884 195.631C55.0884 203.7 61.6295 210.242 69.6984 210.242Z" fill="#4A2328"/>
<path d="M43.5048 146.9L116.751 166.526C120.389 152.95 113.903 136.793 107.505 132.881C109.274 121.997 111.073 109.454 112.335 98.1823H77.9708C74.5811 106.281 71.2367 114.733 68.3347 122.386C60.8375 122.574 47.1424 133.324 43.5048 146.9Z" fill="#FCD04D"/>
<path d="M77.9714 98.1822H112.336C113.032 91.9664 113.565 86.1361 113.841 81.1828C115.878 81.7286 117.991 80.5083 118.538 78.4706L121.613 66.9946C122.139 65.0292 120.962 62.9905 118.997 62.4642L93.5918 55.6573C91.6259 55.1304 89.0398 56.2384 89.0609 58.2729L85.986 69.7489C84.9318 71.5762 86.6605 73.9002 88.6981 74.446C85.4138 80.9433 81.6655 89.3524 77.9714 98.1822Z" fill="#E9CA92"/>
<path d="M156.155 81.1823C156.429 86.1362 156.963 91.966 157.659 98.1817H192.024C188.329 89.3519 184.581 80.9424 181.296 74.445C183.334 73.8992 185.063 71.5752 184.008 69.7479L180.933 58.2719C180.954 56.2374 178.368 55.1295 176.403 55.6563L150.997 62.4632C149.032 62.99 147.855 65.0287 148.382 66.9936L151.456 78.4697C152.003 80.5084 154.118 81.7281 156.155 81.1823Z" fill="#E9CA92"/>
<path d="M192.024 98.1818H157.66C158.922 109.454 160.721 121.997 162.49 132.881C156.092 136.793 149.606 152.951 153.244 166.526L226.49 146.899C222.853 133.323 209.157 122.573 201.661 122.385C198.758 114.732 195.414 106.281 192.024 98.1818Z" fill="#FCD04D"/>
<path d="M226.49 146.9L153.243 166.526L174.099 244.36L247.345 224.733L226.49 146.9ZM186.183 199.411C184.094 191.617 188.719 183.605 196.514 181.517C204.307 179.429 212.319 184.054 214.407 191.848C216.495 199.642 211.87 207.653 204.076 209.742C196.282 211.83 188.271 207.205 186.183 199.411Z" fill="#4A2328"/>
<path d="M200.294 210.242C208.363 210.242 214.904 203.7 214.904 195.631C214.904 187.563 208.363 181.021 200.294 181.021C192.225 181.021 185.684 187.563 185.684 195.631C185.684 203.7 192.225 210.242 200.294 210.242Z" fill="#4A2328"/>
<path d="M247.345 224.733L174.099 244.36L177.427 256.781C178.998 262.644 185.625 266.01 192.15 264.262L216.907 257.628L241.665 250.994C248.19 249.246 252.246 243.018 250.675 237.154L247.345 224.733Z" fill="#F4A23F"/>
<path d="M120.361 57.3707L94.9559 50.5632C92.1789 49.8191 89.0639 50.4356 86.8264 52.1716C85.1247 53.491 84.0652 55.3604 83.8348 57.4012L81.0204 67.9054C80.1908 69.827 80.184 72.0192 81.0235 74.0458C81.2999 74.7129 81.6611 75.3446 82.0914 75.93C79.4019 81.5293 76.336 88.4348 73.1176 96.1177C73.1139 96.1267 73.1102 96.1351 73.1065 96.1435C70.2953 102.856 67.3696 110.156 64.4797 117.694C54.6279 120.367 42.065 131.898 38.41 145.535L14.2277 235.79C11.9005 244.477 17.6153 253.582 26.9667 256.088L76.481 269.355C76.481 269.355 76.4805 269.355 76.481 269.355C78.0915 269.786 79.7273 270.001 81.3478 270.001C84.1696 270.001 86.9445 269.352 89.4541 268.077C93.5948 265.973 96.51 262.446 97.6622 258.146L100.989 245.731C100.989 245.729 100.99 245.727 100.99 245.725C100.991 245.724 100.991 245.722 100.991 245.721L121.846 167.892C125.5 154.254 120.385 137.987 113.19 130.746C115.002 119.332 116.509 108.3 117.574 98.7723C117.577 98.7449 117.581 98.7175 117.584 98.6896C118.116 93.9155 118.537 89.5243 118.829 85.651C121.112 84.5325 122.923 82.4785 123.632 79.836L126.707 68.3594C127.986 63.5806 125.139 58.651 120.361 57.3707ZM93.7472 61.158L116.111 67.1502L113.765 75.9083C113.723 75.9089 113.682 75.9136 113.64 75.9152C113.601 75.9162 113.563 75.9189 113.525 75.9215C113.397 75.9294 113.269 75.9416 113.143 75.9584C113.1 75.9642 113.056 75.9695 113.013 75.9764C112.887 75.9964 112.763 76.0217 112.639 76.0507C112.603 76.0592 112.566 76.0655 112.53 76.075C112.379 76.114 112.23 76.1588 112.083 76.211C112.035 76.2279 111.99 76.2485 111.942 76.2664C111.844 76.3049 111.745 76.3444 111.649 76.3882C111.59 76.4156 111.532 76.4452 111.474 76.4747C111.391 76.5164 111.31 76.5596 111.229 76.6055C111.173 76.6377 111.116 76.6709 111.061 76.7052C110.977 76.7568 110.896 76.8122 110.815 76.8686C110.769 76.9013 110.722 76.9324 110.677 76.9667C110.569 77.0469 110.466 77.1312 110.365 77.2193C110.35 77.233 110.333 77.2452 110.317 77.2594C110.199 77.3659 110.086 77.4782 109.977 77.5948C109.954 77.619 109.934 77.6449 109.911 77.6697C109.829 77.762 109.748 77.8569 109.672 77.9555C109.641 77.9956 109.611 78.0372 109.581 78.0784C109.518 78.1638 109.458 78.2513 109.401 78.341C109.369 78.3911 109.337 78.4422 109.306 78.4934C109.257 78.5767 109.211 78.6627 109.165 78.7491C109.135 78.8077 109.104 78.8657 109.076 78.9253C109.036 79.0096 109 79.0961 108.965 79.1826C108.938 79.2464 108.91 79.3092 108.887 79.374C108.84 79.5017 108.8 79.6324 108.763 79.7653C108.719 79.923 108.684 80.0838 108.654 80.2468C108.648 80.2811 108.638 80.3153 108.633 80.3496C108.629 80.3718 108.628 80.3955 108.625 80.4187C108.601 80.578 108.583 80.7372 108.574 80.8959C108.382 84.3485 108.049 88.4043 107.594 92.9083H85.9494C88.6758 86.6429 91.2139 81.1543 93.4008 76.828C93.4699 76.6909 93.5316 76.5485 93.589 76.404C93.5991 76.3782 93.6128 76.3529 93.6228 76.327C93.6333 76.2986 93.6407 76.2685 93.6513 76.24C93.7093 76.0797 93.7599 75.9184 93.8021 75.7554C93.8364 75.622 93.867 75.488 93.8902 75.3546C93.9018 75.2892 93.9081 75.2238 93.917 75.1585C93.9302 75.0614 93.9434 74.9649 93.9508 74.8684C93.9561 74.8067 93.9582 74.745 93.9608 74.6833C93.9656 74.58 93.9682 74.4771 93.9666 74.3748C93.9656 74.32 93.9645 74.2651 93.9619 74.2108C93.9571 74.0969 93.9476 73.9841 93.9355 73.8717C93.9308 73.828 93.9265 73.7842 93.9207 73.7404C93.9028 73.606 93.8791 73.4725 93.8506 73.3402C93.8458 73.318 93.8427 73.2964 93.838 73.2743C93.8016 73.115 93.7583 72.9579 93.7077 72.8033C93.7045 72.7939 93.7008 72.7849 93.6977 72.7759C93.6518 72.6388 93.5996 72.5033 93.5426 72.3709C93.5215 72.3224 93.4983 72.2749 93.4762 72.227C93.4335 72.1347 93.3892 72.0434 93.3407 71.9538C93.3106 71.8974 93.279 71.842 93.2468 71.7866C93.2004 71.707 93.1513 71.629 93.1007 71.5514C93.0643 71.4955 93.0279 71.4396 92.9894 71.3848C92.9314 71.3031 92.8692 71.2245 92.8065 71.1459C92.7717 71.1021 92.739 71.0568 92.702 71.0141C92.6029 70.8981 92.498 70.7863 92.3888 70.6792C92.3556 70.6465 92.3203 70.617 92.286 70.5853C92.2005 70.5057 92.113 70.4282 92.0218 70.3538C91.9828 70.3222 91.9421 70.2916 91.9021 70.261C91.8066 70.1877 91.7085 70.1181 91.6073 70.0511C91.5709 70.0274 91.535 70.0032 91.4976 69.98C91.4644 69.9589 91.4322 69.9351 91.3985 69.9151L93.7472 61.158ZM68.4675 127.658C70.609 127.604 72.5059 126.259 73.2658 124.256C76.0064 117.029 78.7918 109.991 81.4876 103.455H106.408C105.539 110.536 104.458 118.277 103.216 126.273L101.927 125.927C99.1124 125.173 96.2221 126.843 95.4685 129.656C94.7149 132.47 96.384 135.361 99.1973 136.115L105.251 137.737C108.687 140.483 112.998 150.286 112.469 159.92L50.5162 143.319C55.0883 134.293 64.3674 127.761 68.4675 127.658ZM92.1678 237.901L29.1077 221.004L47.234 153.358L110.294 170.255L92.1678 237.901ZM84.6759 258.674C83.049 259.5 81.1079 259.676 79.21 259.167L29.6962 245.9C29.6957 245.899 29.6962 245.9 29.6957 245.9C26.0248 244.916 23.6064 241.536 24.4143 238.519L26.3776 231.191L89.4373 248.088L87.474 255.415C87.1069 256.786 86.1134 257.943 84.6759 258.674Z" fill="black"/>
<path d="M84.0631 132.061L84.1865 132.094C84.6416 132.215 85.0988 132.273 85.5487 132.273C87.879 132.273 90.0116 130.716 90.6407 128.357C91.3911 125.543 89.7184 122.654 86.9045 121.903L86.7811 121.87C83.9677 121.121 81.0773 122.793 80.3269 125.607C79.576 128.421 81.2487 131.31 84.0631 132.061Z" fill="black"/>
<path d="M255.767 235.789L231.583 145.535C227.929 131.897 215.366 120.366 205.514 117.694C202.624 110.156 199.698 102.855 196.887 96.1436C196.883 96.1346 196.88 96.1262 196.876 96.1172C193.658 88.4343 190.592 81.5288 187.902 75.93C188.332 75.3452 188.693 74.7129 188.969 74.0463C189.809 72.0197 189.802 69.8271 188.973 67.9054L186.158 57.4013C185.927 55.361 184.868 53.4916 183.167 52.1721C180.929 50.4356 177.814 49.8191 175.037 50.5638L149.63 57.3707C147.32 57.9903 145.386 59.4758 144.187 61.5536C142.987 63.6318 142.667 66.0492 143.287 68.36L146.361 79.8371C147.07 82.4796 148.881 84.5336 151.164 85.6516C151.457 89.5228 151.876 93.9113 152.408 98.6827C152.412 98.7165 152.416 98.7502 152.42 98.784C153.484 108.308 154.991 119.336 156.803 130.746C149.608 137.987 144.493 154.255 148.147 167.892L172.33 258.145C173.483 262.446 176.398 265.973 180.539 268.076C183.049 269.352 185.824 270 188.645 270C190.265 270 191.902 269.786 193.512 269.355L243.026 256.087C247.441 254.904 251.204 252.207 253.622 248.494C256.158 244.601 256.919 240.09 255.767 235.789ZM159.702 170.255L222.761 153.358L240.887 221.005L177.827 237.902L159.702 170.255ZM201.528 127.658C205.628 127.761 214.906 134.293 219.479 143.32L157.526 159.92C156.998 150.285 161.309 140.482 164.746 137.737L170.798 136.115C173.612 135.362 175.281 132.47 174.527 129.657C173.773 126.844 170.881 125.173 168.069 125.928L166.78 126.273C165.538 118.277 164.458 110.535 163.588 103.456H188.509C191.205 109.992 193.99 117.03 196.731 124.256C197.49 126.259 199.386 127.604 201.528 127.658ZM176.247 61.1586L178.595 69.9156C178.561 69.9362 178.529 69.9594 178.496 69.9805C178.458 70.0042 178.421 70.0285 178.384 70.0528C178.284 70.1192 178.187 70.1888 178.092 70.2611C178.051 70.2927 178.01 70.3233 177.97 70.3554C177.88 70.4287 177.794 70.5052 177.709 70.5838C177.674 70.6165 177.638 70.6476 177.603 70.6808C177.495 70.7873 177.391 70.8986 177.292 71.0136C177.254 71.0584 177.219 71.1064 177.182 71.1528C177.121 71.2287 177.061 71.3052 177.005 71.3838C176.965 71.4397 176.928 71.4972 176.89 71.5552C176.84 71.6306 176.792 71.7065 176.747 71.7845C176.714 71.841 176.681 71.8985 176.65 71.9565C176.603 72.0445 176.56 72.1336 176.518 72.2238C176.494 72.2734 176.47 72.3224 176.449 72.3725C176.394 72.5023 176.343 72.6346 176.298 72.7686C176.293 72.7807 176.288 72.7928 176.284 72.805C176.234 72.9589 176.191 73.1156 176.155 73.2738C176.149 73.298 176.146 73.3223 176.141 73.3465C176.113 73.4763 176.089 73.6076 176.071 73.7399C176.066 73.7848 176.062 73.8301 176.057 73.8749C176.044 73.9862 176.036 74.098 176.03 74.2109C176.028 74.2657 176.026 74.3211 176.025 74.3764C176.024 74.4782 176.027 74.58 176.031 74.6828C176.034 74.7456 176.037 74.8073 176.041 74.87C176.049 74.9665 176.062 75.0625 176.075 75.159C176.084 75.2244 176.09 75.2903 176.102 75.3552C176.127 75.4955 176.158 75.6352 176.195 75.775C176.233 75.9216 176.28 76.0671 176.332 76.2116C176.346 76.2501 176.356 76.2907 176.37 76.3292C176.377 76.3455 176.385 76.3614 176.391 76.3772C176.453 76.5333 176.52 76.6857 176.594 76.8328C178.781 81.1586 181.318 86.6451 184.044 92.9088H162.401C161.945 88.4043 161.612 84.3485 161.42 80.8965C161.411 80.7367 161.393 80.5759 161.369 80.415C161.366 80.3934 161.365 80.3718 161.362 80.3507C161.356 80.3159 161.346 80.2811 161.34 80.2463C161.312 80.0913 161.279 79.9373 161.238 79.787C161.2 79.6457 161.156 79.5075 161.106 79.372C161.085 79.3118 161.058 79.2538 161.034 79.1942C160.997 79.102 160.958 79.0097 160.916 78.9206C160.89 78.8652 160.861 78.8109 160.832 78.756C160.785 78.6648 160.736 78.5746 160.684 78.4865C160.655 78.438 160.625 78.3906 160.595 78.3431C160.536 78.2508 160.474 78.1607 160.409 78.0726C160.38 78.0325 160.352 77.9919 160.321 77.9529C160.246 77.8564 160.168 77.7636 160.087 77.6729C160.062 77.6449 160.039 77.6159 160.013 77.5885C159.907 77.4751 159.797 77.3659 159.682 77.2626C159.643 77.2267 159.6 77.1946 159.559 77.1598C159.484 77.0965 159.41 77.0337 159.331 76.9752C159.266 76.9251 159.197 76.8792 159.129 76.8323C159.074 76.7948 159.019 76.7574 158.963 76.7221C158.884 76.672 158.802 76.624 158.72 76.5781C158.675 76.5528 158.629 76.5291 158.583 76.5048C158.491 76.4568 158.398 76.4099 158.303 76.3672C158.274 76.3545 158.245 76.3434 158.216 76.3308C157.897 76.1947 157.563 76.0903 157.217 76.0196C157.153 76.0065 157.09 75.9927 157.026 75.9817C156.947 75.969 156.868 75.9585 156.788 75.949C156.697 75.9379 156.607 75.9295 156.515 75.9231C156.453 75.9189 156.39 75.9147 156.327 75.9126C156.294 75.9115 156.262 75.9078 156.229 75.9073L153.883 67.1492L176.247 61.1586ZM244.786 242.74C243.79 244.269 242.197 245.392 240.3 245.9L190.785 259.167C188.887 259.676 186.947 259.501 185.319 258.674C183.882 257.943 182.888 256.786 182.521 255.415L180.557 248.088L243.617 231.191L245.58 238.519C245.947 239.89 245.666 241.389 244.786 242.74Z" fill="black"/>
<path d="M183.209 121.872L183.086 121.905C180.273 122.658 178.603 125.55 179.357 128.363C179.987 130.719 182.118 132.273 184.447 132.273C184.898 132.273 185.358 132.215 185.815 132.093L185.937 132.059C188.751 131.306 190.42 128.414 189.667 125.601C188.913 122.789 186.023 121.117 183.209 121.872Z" fill="black"/>
<path d="M134.998 0C132.085 0 129.724 2.36091 129.724 5.27343V19.3872C129.724 22.2997 132.085 24.6607 134.998 24.6607C137.91 24.6607 140.271 22.2997 140.271 19.3872V5.27343C140.271 2.36091 137.91 0 134.998 0Z" fill="black"/>
<path d="M108.264 31.8046C109.245 33.4784 111.007 34.4107 112.817 34.4107C113.724 34.4107 114.642 34.1771 115.48 33.6851C117.992 32.2117 118.834 28.9807 117.361 26.4684L110.191 14.2457C108.718 11.7334 105.486 10.8912 102.974 12.3652C100.462 13.8386 99.6204 17.0696 101.094 19.5819L108.264 31.8046Z" fill="black"/>
<path d="M154.515 33.6851C155.353 34.1771 156.271 34.4107 157.178 34.4107C158.987 34.4107 160.749 33.4783 161.732 31.8045L168.902 19.5818C170.375 17.0695 169.533 13.8385 167.021 12.3651C164.508 10.8912 161.277 11.7339 159.804 14.2456L152.634 26.4689C151.161 28.9806 152.002 32.2117 154.515 33.6851Z" fill="black"/>
</g>
<defs>
<clipPath id="clip0">
<rect width="270" height="270" fill="white"/>
</clipPath>
</defs>
</svg>
