<svg width="129" height="129" viewBox="0 0 129 129" fill="none" xmlns="http://www.w3.org/2000/svg">
<g clip-path="url(#clip0)">
<path d="M17.5032 58.4637C13.6779 58.4637 10.6723 55.4581 10.6723 51.6328V24.8556C10.6723 19.1177 15.5906 14.4726 21.3285 14.7459C24.0609 14.7459 26.7932 16.1121 28.7059 18.0247C28.4327 16.9318 28.1594 15.8388 28.1594 14.4726C28.4327 7.64173 34.1706 2.177 41.0015 2.177C46.193 2.177 50.838 5.72907 52.4775 10.6473C57.6689 6.00231 65.5928 6.54878 70.2378 12.0135C70.7843 12.8332 71.604 13.6529 71.8772 14.4726C73.7899 13.1065 75.7026 12.56 78.1617 12.56C83.8996 12.56 88.5447 17.205 88.5447 22.943C88.5447 25.4021 87.7249 27.588 86.0855 29.5006L85.2658 30.5936H65.866C65.866 30.8668 65.866 30.8668 65.866 31.1401C65.866 32.233 65.866 33.0527 65.866 34.1457C65.866 34.6921 65.866 35.2386 65.866 35.5118C65.866 42.3427 60.1281 47.8075 53.0239 47.8075C47.286 47.8075 42.0945 43.4357 41.0015 37.6977C38.5424 42.8892 32.258 45.0751 27.0665 42.616C25.9735 42.0695 25.1538 41.523 24.3341 40.7033V51.906C24.3341 55.7313 21.3285 58.7369 17.5032 58.4637Z" fill="white"/>
<path d="M65.866 30.5938H55.2098C55.2098 30.867 55.2098 30.867 55.2098 31.1402C55.2098 32.2332 55.2098 33.0529 55.2098 34.1458C55.2098 34.6923 55.2098 35.2388 55.2098 35.512C55.2098 40.157 52.2042 44.5288 48.1057 46.4415C49.7451 47.2612 51.6577 47.5344 53.2971 47.5344C60.128 47.5344 65.866 42.0697 65.866 35.2388C65.866 34.9655 65.866 34.4191 65.866 33.8726C65.866 32.7796 65.866 31.9599 65.866 30.867C65.866 30.867 65.866 30.867 65.866 30.5938Z" fill="#F7EEBA"/>
<path d="M78.1616 12.8333C76.249 12.8333 74.6096 13.3797 72.9702 14.1994C77.8884 16.9318 79.5278 22.943 76.7955 27.8612C76.5222 28.4077 75.9758 28.9542 75.7025 29.5007L74.8828 30.5936H85.539L86.3587 29.5007C87.9982 27.588 88.8179 25.4021 88.8179 22.943C88.5446 17.4783 83.8996 12.8333 78.1616 12.8333Z" fill="#F7EEBA"/>
<path d="M29.5256 126.226C24.3341 126.772 19.6891 123.22 19.1426 118.029C19.1426 117.209 19.1426 116.663 19.1426 115.843V58.7366L20.782 57.9169C23.2411 56.824 24.6073 54.3648 24.6073 51.9057V41.796L28.1594 43.1621C29.2523 43.4354 30.3453 43.7086 31.7114 43.7086C34.1706 43.7086 36.9029 42.8889 38.8156 41.2495L41.2747 39.0636L42.9141 41.796C45.1 45.6213 49.1986 47.8072 53.5704 47.8072C60.4013 47.8072 66.1392 42.3424 66.1392 35.5115C66.1392 35.2383 66.1392 34.6918 66.1392 34.1453L66.4125 30.5933H84.4461C86.0855 30.5933 87.4517 31.9594 87.4517 33.5989V115.843C87.9981 121.034 84.4461 125.68 79.2546 126.226C78.4349 126.226 77.8884 126.226 77.0687 126.226H29.5256Z" fill="#FBCF4C"/>
<path d="M84.1729 30.5935H69.6913C71.3307 30.5935 72.4237 31.9597 72.4237 33.5991V115.843C72.9702 121.035 69.4181 125.68 64.2266 126.226C63.4069 126.226 62.8604 126.226 62.0407 126.226H76.5222C81.7137 126.773 86.3587 123.221 86.9052 118.029C86.9052 117.209 86.9052 116.663 86.9052 115.843V33.5991C86.9052 31.9597 85.8123 30.5935 84.1729 30.5935Z" fill="#F4A23F"/>
<path d="M87.1785 111.745V96.4433H97.015C103.299 96.4433 103.846 90.1589 103.846 87.4265V69.3929C103.846 66.6606 103.299 60.3761 97.015 60.3761H87.1785V45.3481H105.212C113.136 45.3481 117.781 51.3593 117.781 61.7423V95.0772C117.781 105.46 113.136 111.471 105.212 111.471L87.1785 111.745Z" fill="#FBCF4C"/>
<path d="M105.212 45.3484H96.4685C104.392 45.3484 109.037 51.3596 109.037 61.7426V95.0774C109.037 105.46 104.392 111.472 96.4685 111.472H105.212C113.136 111.472 117.781 105.46 117.781 95.0774V61.7426C117.781 51.3596 113.136 45.3484 105.212 45.3484Z" fill="#F4A23F"/>
<path d="M105.212 42.6161H89.9108V33.5993C89.9108 32.5063 89.6376 31.4134 89.0911 30.5937C90.7305 28.4078 91.5502 25.9486 91.5502 23.2163C91.5502 15.8389 85.539 10.1009 78.1617 10.1009C76.5222 10.1009 74.6096 10.3742 73.2434 11.1939C68.5984 5.45592 60.6745 3.54327 54.1169 7.09534C49.7451 -0.0088051 40.1818 -2.1947 33.0777 2.45032C29.2524 4.90945 26.7932 8.73476 26.2468 13.1065C19.4158 10.6474 11.7652 13.9262 9.3061 20.7572C8.75963 22.1233 8.48639 23.7628 8.48639 25.1289V51.9061C8.48639 56.5511 12.0385 60.6497 16.6835 61.1961V115.843C16.137 122.401 21.0553 128.412 27.6129 128.959C28.4326 128.959 28.9791 128.959 29.7988 128.959H77.0687C83.6264 129.505 89.6376 124.587 90.1841 118.029C90.1841 117.21 90.1841 116.663 90.1841 115.843V114.477H105.212C114.775 114.477 120.513 107.373 120.513 95.3507V61.7426C120.513 49.7202 114.775 42.6161 105.212 42.6161ZM84.4461 115.843C84.9926 119.668 82.5334 122.947 78.7081 123.494C78.1617 123.494 77.3419 123.494 76.7955 123.494H29.5256C25.7003 124.04 22.4214 121.581 21.875 117.756C21.875 117.209 21.875 116.39 21.875 115.843V60.3761C25.1538 58.7367 27.3397 55.4578 27.3397 51.9058V45.6213C31.9847 47.2607 36.903 46.1678 40.455 43.1622C44.8268 50.2663 54.1169 52.7255 61.4942 48.3537C65.866 45.6213 68.5984 40.7031 68.8716 35.5116C68.8716 35.2383 68.8716 34.6919 68.8716 34.4186C68.8716 34.1454 68.8716 33.8722 68.8716 33.5989H84.4461C84.4461 33.5989 84.7193 33.5989 84.7193 33.8722V115.843H84.4461ZM84.1729 27.8613H65.866C64.2266 27.8613 63.1337 28.9542 63.1337 30.5937C63.1337 30.8669 63.1337 30.8669 63.1337 31.1401V31.4134C63.1337 32.2331 63.1337 33.0528 63.1337 33.8725C63.1337 34.419 63.1337 34.9654 63.1337 35.5119C63.1337 40.9766 58.4886 45.0752 53.0239 45.0752C48.3789 45.0752 44.5536 41.7964 43.7339 37.1513C43.4606 36.0584 42.6409 34.9654 41.2747 34.9654C40.1818 34.9654 39.0889 35.5119 38.5424 36.6049C36.6297 40.4302 31.9847 42.0696 28.1594 40.1569C27.3397 39.8837 26.7932 39.3372 26.2468 38.7908C25.1538 37.6978 23.5144 37.6978 22.4214 38.7908C21.875 39.3372 21.6017 39.8837 21.6017 40.7034V51.9061C21.6017 54.092 19.6891 56.0046 17.5032 56.0046C15.3173 56.0046 13.4046 54.092 13.4046 51.9061V25.1289C13.4046 20.7572 17.23 17.4783 21.3285 17.7516C23.5144 17.7516 25.427 18.8445 26.7932 20.2107C27.8862 21.3036 29.5256 21.5769 30.6185 20.4839C31.4382 19.6642 31.7115 18.5713 31.4382 17.4783C31.165 16.6586 30.8918 15.5657 30.8918 14.746C30.8918 9.28123 35.2635 4.90945 40.455 4.90945C44.8268 4.90945 48.6521 7.64181 50.0183 11.7404C50.5648 13.1065 51.931 13.9262 53.5704 13.3798C53.8436 13.3798 54.1169 13.1065 54.3901 12.8333C58.4886 9.28123 64.7731 9.8277 68.0519 14.1995C68.5984 14.746 68.8716 15.5657 69.4181 16.1121C69.9646 17.4783 71.604 18.0248 72.9702 17.2051L73.2434 16.9318C74.6096 16.1121 76.249 15.5657 77.8884 15.5657C81.987 15.5657 85.539 18.8445 85.539 22.943C86.0855 24.8557 85.2658 26.4951 84.1729 27.8613ZM89.9108 63.382H97.015C99.7473 63.382 101.114 65.5679 101.114 69.6665V87.7001C101.114 91.7986 99.7473 93.9845 97.015 93.9845H89.9108V63.382ZM115.049 95.3503C115.049 100.542 113.682 109.012 105.212 109.012H89.9108V99.1756H97.015C103.026 99.1756 106.578 94.8039 106.578 87.4265V69.3929C106.578 62.2887 103.026 57.6437 97.015 57.6437H89.9108V48.0804H105.212C113.682 48.0804 115.049 56.5508 115.049 61.7423V95.3503Z" fill="#4A2328"/>
<path d="M33.6241 56.0046C31.9847 56.0046 30.8918 57.0976 30.8918 58.737V103.548C30.8918 105.187 31.9847 106.28 33.6241 106.28C35.2636 106.28 36.3565 105.187 36.3565 103.548V58.737C36.3565 57.0976 34.9903 56.0046 33.6241 56.0046Z" fill="#4A2328"/>
<path d="M46.4662 56.0046C44.8268 56.0046 43.7339 57.0976 43.7339 58.737V103.548C43.7339 105.187 44.8268 106.28 46.4662 106.28C48.1057 106.28 49.1986 105.187 49.1986 103.548V58.737C49.1986 57.0976 48.1057 56.0046 46.4662 56.0046Z" fill="#4A2328"/>
<path d="M59.5816 56.0046C57.9422 56.0046 56.8492 57.0976 56.8492 58.737V103.548C56.8492 105.187 57.9422 106.28 59.5816 106.28C61.221 106.28 62.314 105.187 62.314 103.548V58.737C62.314 57.0976 60.9478 56.0046 59.5816 56.0046Z" fill="#4A2328"/>
<path d="M72.4237 56.0046C70.7843 56.0046 69.6913 57.0976 69.6913 58.737V103.548C69.6913 105.187 70.7843 106.28 72.4237 106.28C74.0631 106.28 75.1561 105.187 75.1561 103.548V58.737C75.1561 57.0976 74.0631 56.0046 72.4237 56.0046Z" fill="#4A2328"/>
</g>
<defs>
<clipPath id="clip0">
<rect width="129" height="129" fill="white"/>
</clipPath>
</defs>
</svg>
